<svg width="1159" height="1108" viewBox="0 0 1159 1108" fill="none" xmlns="http://www.w3.org/2000/svg">
<path d="M1157.63 1072.98C1159.51 1070.96 1159.39 1067.8 1157.37 1065.92L1124.4 1035.29C1122.38 1033.41 1119.21 1033.53 1117.33 1035.55C1115.45 1037.58 1115.57 1040.74 1117.59 1042.62L1146.9 1069.84L1119.68 1099.15C1117.8 1101.17 1117.92 1104.34 1119.94 1106.21C1121.96 1108.09 1125.13 1107.98 1127.01 1105.95L1157.63 1072.98ZM0.108231 1.38026C36.5561 479.248 225.892 751.546 456.234 902.342C686.308 1052.96 956.539 1081.87 1154.15 1074.58L1153.78 1064.58C957.213 1071.83 689.355 1043 461.711 893.975C234.336 745.122 46.3268 475.86 10.0793 0.619745L0.108231 1.38026Z" fill="black"/>
</svg>
