<svg width="641" height="142" viewBox="0 0 641 142" fill="none" xmlns="http://www.w3.org/2000/svg">
<path d="M1.09627 86.4489C-1.41752 91.3665 0.531149 97.3909 5.44874 99.9047L85.5856 140.869C90.5031 143.383 96.5275 141.434 99.0413 136.517C101.555 131.599 99.6064 125.575 94.6888 123.061L23.4561 86.6481L59.869 15.4154C62.3828 10.4978 60.4341 4.47345 55.5165 1.95966C50.5989 -0.554125 44.5746 1.39455 42.0608 6.31214L1.09627 86.4489ZM13.078 100.515C126.235 63.9125 216.159 44.4867 310.406 42.9626C404.704 41.4377 503.952 57.8237 635.744 93.6686L640.993 74.3697C508.312 38.2829 407.026 21.3975 310.083 22.9652C213.09 24.5337 121.066 44.5645 6.92269 81.4859L13.078 100.515Z" fill="black"/>
</svg>
