<svg width="319" height="69" viewBox="0 0 319 69" fill="none" xmlns="http://www.w3.org/2000/svg">
<path d="M315.836 52.0292C318.404 51.0153 319.665 48.1111 318.651 45.5426L302.128 3.68557C301.114 1.11701 298.21 -0.143283 295.642 0.870618C293.073 1.88452 291.813 4.78867 292.827 7.35722L307.513 44.5634L270.307 59.2501C267.739 60.264 266.478 63.1681 267.492 65.7367C268.506 68.3052 271.41 69.5655 273.979 68.5516L315.836 52.0292ZM5.14774 51.8936C61.2976 25.1849 105.66 11.365 151.94 11.0071C198.258 10.649 247.039 23.7701 312.01 51.9651L315.99 42.7917C250.477 14.3612 200.202 0.633621 151.863 1.00743C103.487 1.38153 57.5911 15.8743 0.852257 42.8632L5.14774 51.8936Z" fill="black"/>
</svg>
