<svg width="497" height="142" viewBox="0 0 497 142" fill="none" xmlns="http://www.w3.org/2000/svg">
<path d="M495.432 55.4569C497.935 50.5337 495.973 44.5137 491.05 42.0109L410.822 1.22434C405.899 -1.27853 399.879 0.68351 397.376 5.60667C394.874 10.5298 396.836 16.5498 401.759 19.0527L473.072 55.3074L436.817 126.621C434.315 131.544 436.277 137.564 441.2 140.067C446.123 142.57 452.143 140.608 454.646 135.684L495.432 55.4569ZM483.419 41.4173C396.637 69.7014 327.736 84.9027 255.44 86.7768C183.095 88.6523 106.749 77.198 5.08512 51.3929L0.164591 70.7782C102.703 96.8054 181.039 108.712 255.958 106.77C330.925 104.827 401.869 89.0316 489.617 60.4328L483.419 41.4173Z" fill="black"/>
</svg>
