<svg width="498" height="144" viewBox="0 0 498 144" fill="none" xmlns="http://www.w3.org/2000/svg">
<path d="M5.5108 47.4922C0.764799 50.3166 -0.792954 56.4536 2.03146 61.1996L48.058 138.54C50.8824 143.286 57.0194 144.844 61.7654 142.02C66.5114 139.195 68.0692 133.058 65.2448 128.312L24.3323 59.5649L93.0795 18.6524C97.8255 15.828 99.3832 9.691 96.5588 4.945C93.7344 0.198998 87.5974 -1.35876 82.8514 1.46566L5.5108 47.4922ZM491.419 36.4173C404.637 64.7014 335.736 79.9027 263.44 81.7768C191.095 83.6523 114.749 72.198 13.0851 46.3929L8.16459 65.7782C110.703 91.8054 189.039 103.712 263.958 101.77C338.925 99.8267 409.869 84.0316 497.617 55.4328L491.419 36.4173Z" fill="black"/>
</svg>
