<svg xmlns="http://www.w3.org/2000/svg" xmlns:xlink="http://www.w3.org/1999/xlink" width="1080" zoomAndPan="magnify" viewBox="0 0 810 809.999993" height="1080" preserveAspectRatio="xMidYMid meet" version="1.0"><path fill="#ff0000" d="M 279.257812 619.675781 C 279.257812 620.242188 279.230469 620.804688 279.175781 621.371094 C 279.117188 621.933594 279.035156 622.492188 278.925781 623.046875 C 278.816406 623.601562 278.675781 624.152344 278.511719 624.695312 C 278.347656 625.234375 278.15625 625.769531 277.941406 626.292969 C 277.722656 626.816406 277.484375 627.328125 277.214844 627.824219 C 276.949219 628.324219 276.65625 628.808594 276.34375 629.28125 C 276.027344 629.753906 275.691406 630.207031 275.332031 630.644531 C 274.972656 631.082031 274.59375 631.5 274.191406 631.902344 C 273.792969 632.300781 273.375 632.683594 272.933594 633.042969 C 272.496094 633.402344 272.042969 633.738281 271.570312 634.050781 C 271.101562 634.367188 270.617188 634.65625 270.117188 634.925781 C 269.617188 635.191406 269.105469 635.433594 268.582031 635.648438 C 268.058594 635.867188 267.527344 636.058594 266.984375 636.222656 C 266.441406 636.386719 265.894531 636.523438 265.339844 636.632812 C 264.785156 636.746094 264.222656 636.828125 263.660156 636.882812 C 263.097656 636.9375 262.53125 636.964844 261.964844 636.964844 C 261.398438 636.964844 260.835938 636.9375 260.269531 636.882812 C 259.707031 636.828125 259.148438 636.746094 258.589844 636.632812 C 258.035156 636.523438 257.488281 636.386719 256.945312 636.222656 C 256.402344 636.058594 255.871094 635.867188 255.347656 635.648438 C 254.824219 635.433594 254.3125 635.191406 253.8125 634.925781 C 253.3125 634.65625 252.828125 634.367188 252.359375 634.050781 C 251.886719 633.738281 251.433594 633.402344 250.996094 633.042969 C 250.558594 632.683594 250.136719 632.300781 249.738281 631.902344 C 249.335938 631.5 248.957031 631.082031 248.597656 630.644531 C 248.238281 630.207031 247.902344 629.753906 247.585938 629.28125 C 247.273438 628.808594 246.980469 628.324219 246.714844 627.824219 C 246.449219 627.328125 246.207031 626.816406 245.988281 626.292969 C 245.773438 625.769531 245.582031 625.234375 245.417969 624.695312 C 245.253906 624.152344 245.117188 623.601562 245.003906 623.046875 C 244.894531 622.492188 244.8125 621.933594 244.757812 621.371094 C 244.699219 620.804688 244.671875 620.242188 244.671875 619.675781 C 244.671875 619.109375 244.699219 618.542969 244.757812 617.980469 C 244.8125 617.414062 244.894531 616.855469 245.003906 616.300781 C 245.117188 615.746094 245.253906 615.195312 245.417969 614.65625 C 245.582031 614.113281 245.773438 613.582031 245.988281 613.058594 C 246.207031 612.535156 246.449219 612.023438 246.714844 611.523438 C 246.980469 611.023438 247.273438 610.539062 247.585938 610.066406 C 247.902344 609.597656 248.238281 609.140625 248.597656 608.703125 C 248.957031 608.265625 249.335938 607.847656 249.738281 607.445312 C 250.136719 607.046875 250.558594 606.667969 250.996094 606.308594 C 251.433594 605.949219 251.886719 605.609375 252.359375 605.296875 C 252.828125 604.980469 253.3125 604.691406 253.8125 604.425781 C 254.3125 604.15625 254.824219 603.914062 255.347656 603.699219 C 255.871094 603.480469 256.402344 603.292969 256.945312 603.125 C 257.488281 602.960938 258.035156 602.824219 258.589844 602.714844 C 259.148438 602.605469 259.707031 602.519531 260.269531 602.464844 C 260.835938 602.410156 261.398438 602.382812 261.964844 602.382812 C 262.53125 602.382812 263.097656 602.410156 263.660156 602.464844 C 264.222656 602.519531 264.785156 602.605469 265.339844 602.714844 C 265.894531 602.824219 266.441406 602.960938 266.984375 603.128906 C 267.527344 603.292969 268.058594 603.480469 268.582031 603.699219 C 269.105469 603.914062 269.617188 604.15625 270.117188 604.425781 C 270.617188 604.691406 271.101562 604.980469 271.570312 605.296875 C 272.042969 605.609375 272.496094 605.949219 272.933594 606.308594 C 273.375 606.667969 273.792969 607.046875 274.191406 607.445312 C 274.59375 607.847656 274.972656 608.265625 275.332031 608.703125 C 275.691406 609.140625 276.027344 609.597656 276.34375 610.066406 C 276.65625 610.539062 276.949219 611.023438 277.214844 611.523438 C 277.484375 612.023438 277.722656 612.535156 277.941406 613.058594 C 278.15625 613.582031 278.347656 614.113281 278.511719 614.65625 C 278.675781 615.195312 278.816406 615.746094 278.925781 616.300781 C 279.035156 616.855469 279.117188 617.414062 279.175781 617.980469 C 279.230469 618.542969 279.257812 619.109375 279.257812 619.675781 Z M 279.257812 619.675781 " fill-opacity="1" fill-rule="nonzero"/><path fill="#ff0000" d="M 563.074219 619.675781 C 563.074219 620.242188 563.042969 620.804688 562.988281 621.371094 C 562.933594 621.933594 562.851562 622.492188 562.738281 623.046875 C 562.628906 623.601562 562.492188 624.152344 562.328125 624.695312 C 562.164062 625.234375 561.972656 625.769531 561.757812 626.292969 C 561.539062 626.816406 561.296875 627.328125 561.03125 627.824219 C 560.761719 628.324219 560.472656 628.808594 560.15625 629.28125 C 559.84375 629.753906 559.507812 630.207031 559.148438 630.644531 C 558.789062 631.082031 558.40625 631.5 558.007812 631.902344 C 557.605469 632.300781 557.1875 632.683594 556.75 633.042969 C 556.3125 633.402344 555.859375 633.738281 555.386719 634.050781 C 554.917969 634.367188 554.429688 634.65625 553.933594 634.925781 C 553.433594 635.191406 552.921875 635.433594 552.398438 635.648438 C 551.875 635.867188 551.34375 636.058594 550.800781 636.222656 C 550.257812 636.386719 549.710938 636.523438 549.152344 636.632812 C 548.597656 636.746094 548.039062 636.828125 547.476562 636.882812 C 546.910156 636.9375 546.347656 636.964844 545.78125 636.964844 C 545.214844 636.964844 544.648438 636.9375 544.085938 636.882812 C 543.523438 636.828125 542.960938 636.746094 542.40625 636.632812 C 541.851562 636.523438 541.300781 636.386719 540.761719 636.222656 C 540.21875 636.058594 539.6875 635.867188 539.164062 635.648438 C 538.640625 635.433594 538.128906 635.191406 537.628906 634.925781 C 537.128906 634.65625 536.644531 634.367188 536.171875 634.050781 C 535.703125 633.738281 535.25 633.402344 534.808594 633.042969 C 534.371094 632.683594 533.953125 632.300781 533.554688 631.902344 C 533.152344 631.5 532.773438 631.082031 532.414062 630.644531 C 532.054688 630.207031 531.71875 629.753906 531.402344 629.28125 C 531.085938 628.808594 530.796875 628.324219 530.53125 627.824219 C 530.261719 627.328125 530.019531 626.816406 529.804688 626.292969 C 529.585938 625.769531 529.398438 625.234375 529.234375 624.695312 C 529.070312 624.152344 528.929688 623.601562 528.820312 623.046875 C 528.710938 622.492188 528.628906 621.933594 528.570312 621.371094 C 528.515625 620.804688 528.488281 620.242188 528.488281 619.675781 C 528.488281 619.109375 528.515625 618.542969 528.570312 617.980469 C 528.628906 617.414062 528.710938 616.855469 528.820312 616.300781 C 528.929688 615.746094 529.070312 615.195312 529.234375 614.65625 C 529.398438 614.113281 529.585938 613.582031 529.804688 613.058594 C 530.019531 612.535156 530.261719 612.023438 530.53125 611.523438 C 530.796875 611.023438 531.085938 610.539062 531.402344 610.066406 C 531.71875 609.597656 532.054688 609.140625 532.414062 608.703125 C 532.773438 608.265625 533.152344 607.847656 533.554688 607.445312 C 533.953125 607.046875 534.371094 606.667969 534.808594 606.308594 C 535.25 605.949219 535.703125 605.609375 536.171875 605.296875 C 536.644531 604.980469 537.128906 604.691406 537.628906 604.425781 C 538.128906 604.15625 538.640625 603.914062 539.164062 603.699219 C 539.6875 603.480469 540.21875 603.292969 540.761719 603.125 C 541.300781 602.960938 541.851562 602.824219 542.40625 602.714844 C 542.960938 602.605469 543.523438 602.519531 544.085938 602.464844 C 544.648438 602.410156 545.214844 602.382812 545.78125 602.382812 C 546.347656 602.382812 546.910156 602.410156 547.476562 602.464844 C 548.039062 602.519531 548.597656 602.605469 549.152344 602.714844 C 549.710938 602.824219 550.257812 602.960938 550.800781 603.128906 C 551.34375 603.292969 551.875 603.480469 552.398438 603.699219 C 552.921875 603.914062 553.433594 604.15625 553.933594 604.425781 C 554.429688 604.691406 554.917969 604.980469 555.386719 605.296875 C 555.859375 605.609375 556.3125 605.949219 556.75 606.308594 C 557.1875 606.667969 557.605469 607.046875 558.007812 607.445312 C 558.40625 607.847656 558.789062 608.265625 559.148438 608.703125 C 559.507812 609.140625 559.84375 609.597656 560.15625 610.066406 C 560.472656 610.539062 560.761719 611.023438 561.03125 611.523438 C 561.296875 612.023438 561.539062 612.535156 561.757812 613.058594 C 561.972656 613.582031 562.164062 614.113281 562.328125 614.65625 C 562.492188 615.195312 562.628906 615.746094 562.738281 616.300781 C 562.851562 616.855469 562.933594 617.414062 562.988281 617.980469 C 563.042969 618.542969 563.074219 619.109375 563.074219 619.675781 Z M 563.074219 619.675781 " fill-opacity="1" fill-rule="nonzero"/><path fill="#ff0000" d="M 404.929688 -0.246094 C 181.324219 -0.246094 0.0507812 181.042969 0.0507812 404.644531 C 0.0507812 628.242188 181.324219 809.546875 404.929688 809.546875 C 628.542969 809.546875 809.824219 628.25 809.824219 404.644531 C 809.824219 181.035156 628.542969 -0.246094 404.929688 -0.246094 Z M 294.28125 560.378906 L 545.78125 560.378906 C 578.472656 560.378906 605.070312 586.980469 605.070312 619.675781 C 605.070312 652.367188 578.472656 678.972656 545.78125 678.972656 C 513.078125 678.972656 486.476562 652.367188 486.476562 619.675781 C 486.476562 613.660156 487.394531 607.855469 489.058594 602.382812 L 318.671875 602.382812 C 320.34375 607.855469 321.261719 613.652344 321.261719 619.675781 C 321.261719 652.367188 294.667969 678.972656 261.964844 678.972656 C 229.265625 678.972656 202.667969 652.367188 202.667969 619.675781 C 202.667969 590.46875 223.914062 566.179688 251.757812 561.324219 L 241.332031 503.910156 L 241.222656 503.363281 L 185.929688 229.742188 L 135.128906 230.078125 L 134.851562 188.070312 L 220.253906 187.503906 L 240.921875 289.757812 L 623.785156 335.664062 L 575.148438 520.992188 L 287.125 520.992188 Z M 294.28125 560.378906 " fill-opacity="1" fill-rule="nonzero"/><path fill="#ff0000" d="M 279.257812 619.675781 C 279.257812 620.242188 279.230469 620.804688 279.175781 621.371094 C 279.117188 621.933594 279.035156 622.492188 278.925781 623.046875 C 278.816406 623.601562 278.675781 624.152344 278.511719 624.695312 C 278.347656 625.234375 278.15625 625.769531 277.941406 626.292969 C 277.722656 626.816406 277.484375 627.328125 277.214844 627.824219 C 276.949219 628.324219 276.65625 628.808594 276.34375 629.28125 C 276.027344 629.753906 275.691406 630.207031 275.332031 630.644531 C 274.972656 631.082031 274.59375 631.5 274.191406 631.902344 C 273.792969 632.300781 273.375 632.683594 272.933594 633.042969 C 272.496094 633.402344 272.042969 633.738281 271.570312 634.050781 C 271.101562 634.367188 270.617188 634.65625 270.117188 634.925781 C 269.617188 635.191406 269.105469 635.433594 268.582031 635.648438 C 268.058594 635.867188 267.527344 636.058594 266.984375 636.222656 C 266.441406 636.386719 265.894531 636.523438 265.339844 636.632812 C 264.785156 636.746094 264.222656 636.828125 263.660156 636.882812 C 263.097656 636.9375 262.53125 636.964844 261.964844 636.964844 C 261.398438 636.964844 260.835938 636.9375 260.269531 636.882812 C 259.707031 636.828125 259.148438 636.746094 258.589844 636.632812 C 258.035156 636.523438 257.488281 636.386719 256.945312 636.222656 C 256.402344 636.058594 255.871094 635.867188 255.347656 635.648438 C 254.824219 635.433594 254.3125 635.191406 253.8125 634.925781 C 253.3125 634.65625 252.828125 634.367188 252.359375 634.050781 C 251.886719 633.738281 251.433594 633.402344 250.996094 633.042969 C 250.558594 632.683594 250.136719 632.300781 249.738281 631.902344 C 249.335938 631.5 248.957031 631.082031 248.597656 630.644531 C 248.238281 630.207031 247.902344 629.753906 247.585938 629.28125 C 247.273438 628.808594 246.980469 628.324219 246.714844 627.824219 C 246.449219 627.328125 246.207031 626.816406 245.988281 626.292969 C 245.773438 625.769531 245.582031 625.234375 245.417969 624.695312 C 245.253906 624.152344 245.117188 623.601562 245.003906 623.046875 C 244.894531 622.492188 244.8125 621.933594 244.757812 621.371094 C 244.699219 620.804688 244.671875 620.242188 244.671875 619.675781 C 244.671875 619.109375 244.699219 618.542969 244.757812 617.980469 C 244.8125 617.414062 244.894531 616.855469 245.003906 616.300781 C 245.117188 615.746094 245.253906 615.195312 245.417969 614.65625 C 245.582031 614.113281 245.773438 613.582031 245.988281 613.058594 C 246.207031 612.535156 246.449219 612.023438 246.714844 611.523438 C 246.980469 611.023438 247.273438 610.539062 247.585938 610.066406 C 247.902344 609.597656 248.238281 609.140625 248.597656 608.703125 C 248.957031 608.265625 249.335938 607.847656 249.738281 607.445312 C 250.136719 607.046875 250.558594 606.667969 250.996094 606.308594 C 251.433594 605.949219 251.886719 605.609375 252.359375 605.296875 C 252.828125 604.980469 253.3125 604.691406 253.8125 604.425781 C 254.3125 604.15625 254.824219 603.914062 255.347656 603.699219 C 255.871094 603.480469 256.402344 603.292969 256.945312 603.125 C 257.488281 602.960938 258.035156 602.824219 258.589844 602.714844 C 259.148438 602.605469 259.707031 602.519531 260.269531 602.464844 C 260.835938 602.410156 261.398438 602.382812 261.964844 602.382812 C 262.53125 602.382812 263.097656 602.410156 263.660156 602.464844 C 264.222656 602.519531 264.785156 602.605469 265.339844 602.714844 C 265.894531 602.824219 266.441406 602.960938 266.984375 603.128906 C 267.527344 603.292969 268.058594 603.480469 268.582031 603.699219 C 269.105469 603.914062 269.617188 604.15625 270.117188 604.425781 C 270.617188 604.691406 271.101562 604.980469 271.570312 605.296875 C 272.042969 605.609375 272.496094 605.949219 272.933594 606.308594 C 273.375 606.667969 273.792969 607.046875 274.191406 607.445312 C 274.59375 607.847656 274.972656 608.265625 275.332031 608.703125 C 275.691406 609.140625 276.027344 609.597656 276.34375 610.066406 C 276.65625 610.539062 276.949219 611.023438 277.214844 611.523438 C 277.484375 612.023438 277.722656 612.535156 277.941406 613.058594 C 278.15625 613.582031 278.347656 614.113281 278.511719 614.65625 C 278.675781 615.195312 278.816406 615.746094 278.925781 616.300781 C 279.035156 616.855469 279.117188 617.414062 279.175781 617.980469 C 279.230469 618.542969 279.257812 619.109375 279.257812 619.675781 Z M 279.257812 619.675781 " fill-opacity="1" fill-rule="nonzero"/><path fill="#ff0000" d="M 563.074219 619.675781 C 563.074219 620.242188 563.042969 620.804688 562.988281 621.371094 C 562.933594 621.933594 562.851562 622.492188 562.738281 623.046875 C 562.628906 623.601562 562.492188 624.152344 562.328125 624.695312 C 562.164062 625.234375 561.972656 625.769531 561.757812 626.292969 C 561.539062 626.816406 561.296875 627.328125 561.03125 627.824219 C 560.761719 628.324219 560.472656 628.808594 560.15625 629.28125 C 559.84375 629.753906 559.507812 630.207031 559.148438 630.644531 C 558.789062 631.082031 558.40625 631.5 558.007812 631.902344 C 557.605469 632.300781 557.1875 632.683594 556.75 633.042969 C 556.3125 633.402344 555.859375 633.738281 555.386719 634.050781 C 554.917969 634.367188 554.429688 634.65625 553.933594 634.925781 C 553.433594 635.191406 552.921875 635.433594 552.398438 635.648438 C 551.875 635.867188 551.34375 636.058594 550.800781 636.222656 C 550.257812 636.386719 549.710938 636.523438 549.152344 636.632812 C 548.597656 636.746094 548.039062 636.828125 547.476562 636.882812 C 546.910156 636.9375 546.347656 636.964844 545.78125 636.964844 C 545.214844 636.964844 544.648438 636.9375 544.085938 636.882812 C 543.523438 636.828125 542.960938 636.746094 542.40625 636.632812 C 541.851562 636.523438 541.300781 636.386719 540.761719 636.222656 C 540.21875 636.058594 539.6875 635.867188 539.164062 635.648438 C 538.640625 635.433594 538.128906 635.191406 537.628906 634.925781 C 537.128906 634.65625 536.644531 634.367188 536.171875 634.050781 C 535.703125 633.738281 535.25 633.402344 534.808594 633.042969 C 534.371094 632.683594 533.953125 632.300781 533.554688 631.902344 C 533.152344 631.5 532.773438 631.082031 532.414062 630.644531 C 532.054688 630.207031 531.71875 629.753906 531.402344 629.28125 C 531.085938 628.808594 530.796875 628.324219 530.53125 627.824219 C 530.261719 627.328125 530.019531 626.816406 529.804688 626.292969 C 529.585938 625.769531 529.398438 625.234375 529.234375 624.695312 C 529.070312 624.152344 528.929688 623.601562 528.820312 623.046875 C 528.710938 622.492188 528.628906 621.933594 528.570312 621.371094 C 528.515625 620.804688 528.488281 620.242188 528.488281 619.675781 C 528.488281 619.109375 528.515625 618.542969 528.570312 617.980469 C 528.628906 617.414062 528.710938 616.855469 528.820312 616.300781 C 528.929688 615.746094 529.070312 615.195312 529.234375 614.65625 C 529.398438 614.113281 529.585938 613.582031 529.804688 613.058594 C 530.019531 612.535156 530.261719 612.023438 530.53125 611.523438 C 530.796875 611.023438 531.085938 610.539062 531.402344 610.066406 C 531.71875 609.597656 532.054688 609.140625 532.414062 608.703125 C 532.773438 608.265625 533.152344 607.847656 533.554688 607.445312 C 533.953125 607.046875 534.371094 606.667969 534.808594 606.308594 C 535.25 605.949219 535.703125 605.609375 536.171875 605.296875 C 536.644531 604.980469 537.128906 604.691406 537.628906 604.425781 C 538.128906 604.15625 538.640625 603.914062 539.164062 603.699219 C 539.6875 603.480469 540.21875 603.292969 540.761719 603.125 C 541.300781 602.960938 541.851562 602.824219 542.40625 602.714844 C 542.960938 602.605469 543.523438 602.519531 544.085938 602.464844 C 544.648438 602.410156 545.214844 602.382812 545.78125 602.382812 C 546.347656 602.382812 546.910156 602.410156 547.476562 602.464844 C 548.039062 602.519531 548.597656 602.605469 549.152344 602.714844 C 549.710938 602.824219 550.257812 602.960938 550.800781 603.128906 C 551.34375 603.292969 551.875 603.480469 552.398438 603.699219 C 552.921875 603.914062 553.433594 604.15625 553.933594 604.425781 C 554.429688 604.691406 554.917969 604.980469 555.386719 605.296875 C 555.859375 605.609375 556.3125 605.949219 556.75 606.308594 C 557.1875 606.667969 557.605469 607.046875 558.007812 607.445312 C 558.40625 607.847656 558.789062 608.265625 559.148438 608.703125 C 559.507812 609.140625 559.84375 609.597656 560.15625 610.066406 C 560.472656 610.539062 560.761719 611.023438 561.03125 611.523438 C 561.296875 612.023438 561.539062 612.535156 561.757812 613.058594 C 561.972656 613.582031 562.164062 614.113281 562.328125 614.65625 C 562.492188 615.195312 562.628906 615.746094 562.738281 616.300781 C 562.851562 616.855469 562.933594 617.414062 562.988281 617.980469 C 563.042969 618.542969 563.074219 619.109375 563.074219 619.675781 Z M 563.074219 619.675781 " fill-opacity="1" fill-rule="nonzero"/><path fill="#ff0000" d="M 404.929688 -0.246094 C 181.324219 -0.246094 0.0507812 181.042969 0.0507812 404.644531 C 0.0507812 628.242188 181.324219 809.546875 404.929688 809.546875 C 628.542969 809.546875 809.824219 628.25 809.824219 404.644531 C 809.824219 181.035156 628.542969 -0.246094 404.929688 -0.246094 Z M 294.28125 560.378906 L 545.78125 560.378906 C 578.472656 560.378906 605.070312 586.980469 605.070312 619.675781 C 605.070312 652.367188 578.472656 678.972656 545.78125 678.972656 C 513.078125 678.972656 486.476562 652.367188 486.476562 619.675781 C 486.476562 613.660156 487.394531 607.855469 489.058594 602.382812 L 318.671875 602.382812 C 320.34375 607.855469 321.261719 613.652344 321.261719 619.675781 C 321.261719 652.367188 294.667969 678.972656 261.964844 678.972656 C 229.265625 678.972656 202.667969 652.367188 202.667969 619.675781 C 202.667969 590.46875 223.914062 566.179688 251.757812 561.324219 L 241.332031 503.910156 L 241.222656 503.363281 L 185.929688 229.742188 L 135.128906 230.078125 L 134.851562 188.070312 L 220.253906 187.503906 L 240.921875 289.757812 L 623.785156 335.664062 L 575.148438 520.992188 L 287.125 520.992188 Z M 294.28125 560.378906 " fill-opacity="1" fill-rule="nonzero"/></svg>