<svg xmlns="http://www.w3.org/2000/svg" xmlns:xlink="http://www.w3.org/1999/xlink" width="1080" zoomAndPan="magnify" viewBox="0 0 810 809.999993" height="1080" preserveAspectRatio="xMidYMid meet" version="1.0"><defs><clipPath id="6fce032d3e"><path d="M 283.5 162 L 526.5 162 L 526.5 405 L 283.5 405 Z M 283.5 162 " clip-rule="nonzero"/></clipPath><clipPath id="bb1c140e9d"><path d="M 405 162 C 337.898438 162 283.5 216.398438 283.5 283.5 C 283.5 350.601562 337.898438 405 405 405 C 472.101562 405 526.5 350.601562 526.5 283.5 C 526.5 216.398438 472.101562 162 405 162 Z M 405 162 " clip-rule="nonzero"/></clipPath><clipPath id="724d2ab481"><path d="M 283.5 424.339844 L 526.855469 424.339844 L 526.855469 636.964844 L 283.5 636.964844 Z M 283.5 424.339844 " clip-rule="nonzero"/></clipPath><clipPath id="1e3ac63714"><path d="M 405 636.964844 L 526.5 424.339844 L 283.5 424.339844 Z M 405 636.964844 " clip-rule="nonzero"/></clipPath></defs><g clip-path="url(#6fce032d3e)"><g clip-path="url(#bb1c140e9d)"><path fill="#00a1ff" d="M 283.5 162 L 526.5 162 L 526.5 405 L 283.5 405 Z M 283.5 162 " fill-opacity="1" fill-rule="nonzero"/></g></g><g clip-path="url(#724d2ab481)"><g clip-path="url(#1e3ac63714)"><path fill="#00a1ff" d="M 283.5 424.339844 L 526.855469 424.339844 L 526.855469 636.964844 L 283.5 636.964844 Z M 283.5 424.339844 " fill-opacity="1" fill-rule="nonzero"/></g></g></svg>