<svg xmlns="http://www.w3.org/2000/svg" xmlns:xlink="http://www.w3.org/1999/xlink" width="1080" zoomAndPan="magnify" viewBox="0 0 810 809.999993" height="1080" preserveAspectRatio="xMidYMid meet" version="1.0"><defs><clipPath id="292d05e0ec"><path d="M 120.492188 565 L 689.742188 565 L 689.742188 810 L 120.492188 810 Z M 120.492188 565 " clip-rule="nonzero"/></clipPath><clipPath id="464c6bf53e"><path d="M 120.492188 565 L 689.742188 565 L 689.742188 810 L 120.492188 810 Z M 120.492188 565 " clip-rule="nonzero"/></clipPath></defs><path fill="#ffffff" d="M 561.699219 74.179688 C 558.847656 71.832031 555.941406 69.550781 552.988281 67.335938 C 550.03125 65.121094 547.027344 62.972656 543.976562 60.890625 C 540.921875 58.8125 537.828125 56.800781 534.683594 54.859375 C 531.542969 52.917969 528.355469 51.046875 525.132812 49.25 C 521.90625 47.449219 518.640625 45.726562 515.335938 44.074219 C 512.03125 42.421875 508.691406 40.847656 505.316406 39.34375 C 501.941406 37.84375 498.535156 36.417969 495.097656 35.070312 C 491.660156 33.722656 488.191406 32.449219 484.695312 31.257812 C 481.199219 30.066406 477.679688 28.953125 474.132812 27.917969 C 470.585938 26.882812 467.019531 25.929688 463.429688 25.054688 C 459.839844 24.179688 456.234375 23.386719 452.609375 22.675781 C 448.984375 21.964844 445.347656 21.335938 441.695312 20.785156 C 438.042969 20.238281 434.378906 19.773438 430.703125 19.386719 C 427.03125 19.003906 423.351562 18.703125 419.664062 18.484375 C 415.976562 18.265625 412.285156 18.132812 408.59375 18.078125 C 404.898438 18.027344 401.207031 18.058594 397.515625 18.171875 C 393.820312 18.285156 390.132812 18.480469 386.453125 18.757812 C 382.769531 19.039062 379.09375 19.398438 375.425781 19.84375 C 371.757812 20.289062 368.105469 20.816406 364.460938 21.425781 C 360.816406 22.03125 357.191406 22.722656 353.578125 23.496094 C 349.964844 24.265625 346.371094 25.117188 342.796875 26.050781 C 339.226562 26.984375 335.671875 27.996094 332.144531 29.089844 C 328.617188 30.183594 325.113281 31.355469 321.640625 32.605469 C 318.164062 33.855469 314.71875 35.183594 311.300781 36.585938 C 307.886719 37.992188 304.503906 39.472656 301.152344 41.03125 C 297.804688 42.585938 294.492188 44.21875 291.214844 45.925781 C 287.9375 47.628906 284.703125 49.410156 281.503906 51.261719 C 278.308594 53.113281 275.15625 55.035156 272.046875 57.027344 C 268.9375 59.019531 265.871094 61.082031 262.855469 63.210938 C 259.839844 65.34375 256.871094 67.539062 253.953125 69.804688 C 251.035156 72.070312 248.167969 74.398438 245.355469 76.789062 C 242.539062 79.183594 239.78125 81.636719 237.078125 84.15625 C 234.375 86.671875 231.730469 89.246094 229.140625 91.882812 C 226.554688 94.519531 224.027344 97.210938 221.558594 99.960938 C 219.09375 102.710938 216.6875 105.515625 214.347656 108.371094 C 212.007812 111.230469 209.730469 114.136719 207.523438 117.097656 C 205.3125 120.054688 203.167969 123.0625 201.09375 126.121094 C 199.019531 129.175781 197.015625 132.277344 195.078125 135.421875 C 193.144531 138.570312 191.28125 141.757812 189.488281 144.988281 C 187.695312 148.21875 185.976562 151.484375 184.332031 154.792969 C 182.6875 158.097656 181.117188 161.441406 179.621094 164.820312 C 178.125 168.195312 176.707031 171.605469 175.367188 175.046875 C 174.023438 178.488281 172.761719 181.957031 171.574219 185.457031 C 170.386719 188.957031 169.28125 192.476562 168.253906 196.027344 C 167.226562 199.574219 166.277344 203.144531 165.410156 206.734375 C 164.542969 210.324219 163.757812 213.933594 163.054688 217.558594 C 162.347656 221.183594 161.726562 224.824219 161.183594 228.476562 C 160.640625 232.132812 160.183594 235.796875 159.804688 239.46875 C 159.429688 243.144531 159.136719 246.824219 158.921875 250.511719 C 158.710938 254.199219 158.582031 257.890625 158.539062 261.585938 C 158.492188 265.277344 158.53125 268.972656 158.652344 272.664062 C 158.769531 276.355469 158.972656 280.042969 159.261719 283.722656 C 159.546875 287.40625 159.914062 291.082031 160.367188 294.746094 C 160.816406 298.414062 161.351562 302.066406 161.96875 305.710938 C 162.582031 309.351562 163.28125 312.976562 164.058594 316.589844 C 164.835938 320.199219 165.695312 323.789062 166.636719 327.363281 C 167.574219 330.933594 168.59375 334.484375 169.695312 338.011719 C 170.792969 341.535156 171.972656 345.035156 173.230469 348.511719 C 174.484375 351.984375 175.820312 355.425781 177.230469 358.839844 C 178.640625 362.253906 180.128906 365.632812 181.691406 368.980469 C 183.257812 372.328125 184.894531 375.636719 186.605469 378.910156 C 188.316406 382.183594 190.101562 385.414062 191.960938 388.609375 C 193.816406 391.800781 195.746094 394.949219 197.746094 398.054688 C 199.742188 401.164062 201.8125 404.222656 203.949219 407.234375 L 217.300781 426.011719 C 253.183594 476.425781 290.324219 528.433594 323.171875 581.917969 C 336.640625 603.65625 349.386719 625.734375 361.75 648.191406 L 388.304688 696.367188 C 389.113281 697.835938 390.101562 699.175781 391.265625 700.382812 C 392.429688 701.59375 393.730469 702.628906 395.171875 703.492188 C 396.609375 704.355469 398.136719 705.015625 399.753906 705.472656 C 401.367188 705.929688 403.015625 706.167969 404.691406 706.191406 L 404.996094 706.191406 C 406.652344 706.191406 408.285156 705.976562 409.886719 705.550781 C 411.488281 705.125 413.007812 704.496094 414.445312 703.671875 C 415.882812 702.847656 417.1875 701.851562 418.367188 700.683594 C 419.542969 699.515625 420.546875 698.214844 421.382812 696.78125 L 426.960938 687.222656 C 445.242188 653.804688 465.425781 619.359375 488.601562 581.996094 C 529.570312 516.824219 573.457031 453.742188 607.21875 405.945312 C 609.410156 402.800781 611.527344 399.605469 613.570312 396.363281 C 615.613281 393.117188 617.582031 389.828125 619.472656 386.492188 C 621.359375 383.15625 623.171875 379.777344 624.90625 376.359375 C 626.636719 372.9375 628.289062 369.480469 629.859375 365.984375 C 631.433594 362.484375 632.921875 358.953125 634.328125 355.386719 C 635.734375 351.820312 637.058594 348.226562 638.296875 344.597656 C 639.539062 340.96875 640.691406 337.316406 641.761719 333.632812 C 642.832031 329.953125 643.8125 326.246094 644.710938 322.519531 C 645.609375 318.792969 646.417969 315.046875 647.140625 311.28125 C 647.863281 307.515625 648.496094 303.734375 649.042969 299.941406 C 649.589844 296.144531 650.046875 292.339844 650.417969 288.523438 C 650.785156 284.707031 651.066406 280.886719 651.257812 277.058594 C 651.449219 273.226562 651.550781 269.398438 651.5625 265.5625 C 651.574219 261.730469 651.5 257.898438 651.332031 254.066406 C 651.167969 250.238281 650.914062 246.414062 650.570312 242.59375 C 650.226562 238.777344 649.792969 234.96875 649.269531 231.167969 C 648.75 227.371094 648.140625 223.585938 647.445312 219.816406 C 646.746094 216.046875 645.960938 212.296875 645.089844 208.5625 C 644.21875 204.828125 643.257812 201.117188 642.214844 197.429688 C 641.167969 193.742188 640.039062 190.078125 638.824219 186.441406 C 637.609375 182.808594 636.308594 179.199219 634.925781 175.625 C 633.542969 172.050781 632.078125 168.507812 630.527344 165 C 628.980469 161.492188 627.351562 158.023438 625.640625 154.59375 C 623.933594 151.160156 622.144531 147.773438 620.273438 144.425781 C 618.40625 141.074219 616.464844 137.773438 614.441406 134.515625 C 612.421875 131.257812 610.324219 128.050781 608.152344 124.890625 C 605.984375 121.730469 603.738281 118.621094 601.421875 115.566406 C 599.109375 112.511719 596.722656 109.511719 594.265625 106.566406 C 591.8125 103.621094 589.289062 100.734375 586.699219 97.910156 C 584.109375 95.082031 581.457031 92.316406 578.738281 89.613281 C 576.019531 86.910156 573.238281 84.273438 570.398438 81.699219 C 567.558594 79.125 564.65625 76.617188 561.699219 74.179688 Z M 404.996094 381.136719 C 403.089844 381.136719 401.183594 381.089844 399.28125 380.996094 C 397.375 380.902344 395.476562 380.761719 393.578125 380.574219 C 391.679688 380.390625 389.789062 380.15625 387.902344 379.875 C 386.015625 379.597656 384.140625 379.269531 382.269531 378.898438 C 380.398438 378.527344 378.539062 378.109375 376.691406 377.644531 C 374.839844 377.183594 373.003906 376.675781 371.179688 376.121094 C 369.355469 375.566406 367.546875 374.96875 365.75 374.328125 C 363.953125 373.683594 362.175781 373 360.414062 372.269531 C 358.652344 371.539062 356.910156 370.765625 355.1875 369.953125 C 353.464844 369.136719 351.761719 368.28125 350.082031 367.382812 C 348.398438 366.484375 346.742188 365.542969 345.105469 364.5625 C 343.46875 363.582031 341.859375 362.5625 340.273438 361.503906 C 338.691406 360.445312 337.132812 359.347656 335.601562 358.210938 C 334.070312 357.078125 332.566406 355.902344 331.09375 354.695312 C 329.617188 353.484375 328.175781 352.238281 326.761719 350.960938 C 325.351562 349.679688 323.96875 348.363281 322.621094 347.015625 C 321.273438 345.667969 319.960938 344.289062 318.679688 342.875 C 317.398438 341.464844 316.152344 340.019531 314.945312 338.546875 C 313.734375 337.074219 312.5625 335.570312 311.425781 334.039062 C 310.292969 332.507812 309.195312 330.949219 308.132812 329.363281 C 307.074219 327.777344 306.054688 326.167969 305.074219 324.53125 C 304.09375 322.898438 303.15625 321.238281 302.257812 319.558594 C 301.359375 317.875 300.5 316.175781 299.6875 314.449219 C 298.871094 312.726562 298.097656 310.984375 297.371094 309.222656 C 296.640625 307.460938 295.953125 305.683594 295.3125 303.886719 C 294.667969 302.09375 294.070312 300.285156 293.519531 298.460938 C 292.964844 296.636719 292.457031 294.796875 291.992188 292.949219 C 291.53125 291.097656 291.113281 289.238281 290.738281 287.371094 C 290.367188 285.5 290.042969 283.621094 289.761719 281.734375 C 289.484375 279.851562 289.25 277.957031 289.0625 276.0625 C 288.875 274.164062 288.734375 272.261719 288.640625 270.359375 C 288.546875 268.453125 288.5 266.550781 288.5 264.644531 C 288.5 262.738281 288.546875 260.832031 288.640625 258.925781 C 288.734375 257.023438 288.875 255.121094 289.0625 253.222656 C 289.25 251.328125 289.484375 249.4375 289.761719 247.550781 C 290.042969 245.664062 290.367188 243.785156 290.738281 241.917969 C 291.113281 240.046875 291.53125 238.1875 291.992188 236.335938 C 292.457031 234.488281 292.964844 232.652344 293.519531 230.828125 C 294.070312 229.003906 294.667969 227.191406 295.3125 225.398438 C 295.953125 223.601562 296.640625 221.824219 297.371094 220.0625 C 298.097656 218.300781 298.871094 216.558594 299.6875 214.835938 C 300.5 213.113281 301.359375 211.410156 302.257812 209.726562 C 303.15625 208.046875 304.09375 206.386719 305.074219 204.753906 C 306.054688 203.117188 307.074219 201.507812 308.132812 199.921875 C 309.195312 198.335938 310.292969 196.777344 311.425781 195.246094 C 312.5625 193.714844 313.734375 192.214844 314.945312 190.738281 C 316.152344 189.265625 317.398438 187.824219 318.679688 186.410156 C 319.960938 184.996094 321.273438 183.617188 322.621094 182.269531 C 323.96875 180.921875 325.351562 179.605469 326.761719 178.328125 C 328.175781 177.046875 329.617188 175.800781 331.09375 174.59375 C 332.566406 173.382812 334.070312 172.210938 335.601562 171.074219 C 337.132812 169.9375 338.691406 168.839844 340.273438 167.78125 C 341.859375 166.722656 343.46875 165.703125 345.105469 164.722656 C 346.742188 163.742188 348.398438 162.804688 350.082031 161.90625 C 351.761719 161.003906 353.464844 160.148438 355.1875 159.332031 C 356.910156 158.519531 358.652344 157.746094 360.414062 157.015625 C 362.175781 156.285156 363.953125 155.601562 365.75 154.957031 C 367.546875 154.316406 369.355469 153.71875 371.179688 153.164062 C 373.003906 152.613281 374.839844 152.101562 376.691406 151.640625 C 378.539062 151.175781 380.398438 150.757812 382.269531 150.386719 C 384.140625 150.015625 386.015625 149.691406 387.902344 149.410156 C 389.789062 149.128906 391.679688 148.898438 393.578125 148.710938 C 395.476562 148.523438 397.375 148.382812 399.28125 148.289062 C 401.183594 148.195312 403.089844 148.148438 404.996094 148.148438 C 406.902344 148.148438 408.808594 148.195312 410.710938 148.289062 C 412.617188 148.382812 414.515625 148.523438 416.414062 148.710938 C 418.3125 148.898438 420.203125 149.128906 422.089844 149.410156 C 423.976562 149.691406 425.851562 150.015625 427.722656 150.386719 C 429.59375 150.757812 431.453125 151.175781 433.300781 151.640625 C 435.152344 152.101562 436.988281 152.613281 438.8125 153.164062 C 440.636719 153.71875 442.445312 154.316406 444.242188 154.957031 C 446.035156 155.601562 447.816406 156.285156 449.574219 157.015625 C 451.335938 157.746094 453.078125 158.519531 454.804688 159.332031 C 456.527344 160.148438 458.230469 161.003906 459.910156 161.90625 C 461.59375 162.804688 463.25 163.742188 464.886719 164.722656 C 466.519531 165.703125 468.132812 166.722656 469.714844 167.78125 C 471.300781 168.839844 472.859375 169.9375 474.390625 171.074219 C 475.921875 172.210938 477.425781 173.382812 478.898438 174.59375 C 480.371094 175.800781 481.816406 177.046875 483.226562 178.328125 C 484.640625 179.605469 486.019531 180.921875 487.371094 182.269531 C 488.71875 183.617188 490.03125 184.996094 491.3125 186.410156 C 492.59375 187.824219 493.835938 189.265625 495.046875 190.738281 C 496.257812 192.214844 497.429688 193.714844 498.566406 195.246094 C 499.699219 196.777344 500.796875 198.335938 501.855469 199.921875 C 502.917969 201.507812 503.9375 203.117188 504.914062 204.753906 C 505.894531 206.386719 506.835938 208.046875 507.734375 209.726562 C 508.632812 211.410156 509.488281 213.113281 510.304688 214.835938 C 511.121094 216.558594 511.890625 218.300781 512.621094 220.0625 C 513.351562 221.824219 514.039062 223.601562 514.679688 225.398438 C 515.324219 227.191406 515.921875 229.003906 516.472656 230.828125 C 517.027344 232.652344 517.535156 234.488281 518 236.335938 C 518.460938 238.1875 518.878906 240.046875 519.25 241.917969 C 519.625 243.785156 519.949219 245.664062 520.230469 247.550781 C 520.507812 249.4375 520.742188 251.328125 520.929688 253.222656 C 521.117188 255.121094 521.257812 257.023438 521.347656 258.925781 C 521.441406 260.832031 521.488281 262.738281 521.488281 264.644531 C 521.488281 266.546875 521.4375 268.453125 521.34375 270.355469 C 521.246094 272.261719 521.105469 274.160156 520.914062 276.058594 C 520.726562 277.953125 520.492188 279.84375 520.210938 281.730469 C 519.925781 283.613281 519.601562 285.492188 519.226562 287.359375 C 518.851562 289.226562 518.433594 291.085938 517.96875 292.933594 C 517.503906 294.785156 516.996094 296.621094 516.441406 298.441406 C 515.886719 300.265625 515.285156 302.074219 514.640625 303.867188 C 514 305.664062 513.3125 307.441406 512.582031 309.199219 C 511.851562 310.960938 511.078125 312.703125 510.261719 314.425781 C 509.445312 316.144531 508.589844 317.847656 507.691406 319.527344 C 506.789062 321.207031 505.851562 322.867188 504.871094 324.5 C 503.890625 326.132812 502.871094 327.742188 501.808594 329.328125 C 500.75 330.914062 499.652344 332.46875 498.519531 334 C 497.382812 335.53125 496.210938 337.03125 495 338.503906 C 493.792969 339.976562 492.546875 341.421875 491.265625 342.832031 C 489.988281 344.246094 488.671875 345.625 487.324219 346.972656 C 485.976562 348.320312 484.597656 349.632812 483.1875 350.914062 C 481.773438 352.195312 480.332031 353.4375 478.859375 354.648438 C 477.386719 355.855469 475.882812 357.03125 474.351562 358.164062 C 472.820312 359.300781 471.265625 360.398438 469.679688 361.457031 C 468.097656 362.515625 466.488281 363.535156 464.851562 364.515625 C 463.21875 365.496094 461.5625 366.4375 459.878906 367.335938 C 458.199219 368.234375 456.5 369.09375 454.777344 369.910156 C 453.054688 370.726562 451.3125 371.5 449.550781 372.230469 C 447.792969 372.960938 446.015625 373.644531 444.222656 374.289062 C 442.425781 374.933594 440.617188 375.53125 438.796875 376.085938 C 436.972656 376.640625 435.136719 377.152344 433.289062 377.617188 C 431.441406 378.082031 429.582031 378.5 427.710938 378.875 C 425.84375 379.246094 423.964844 379.574219 422.082031 379.855469 C 420.195312 380.136719 418.304688 380.375 416.410156 380.5625 C 414.511719 380.75 412.613281 380.894531 410.710938 380.988281 C 408.804688 381.085938 406.902344 381.132812 404.996094 381.136719 Z M 404.996094 381.136719 " fill-opacity="1" fill-rule="nonzero"/><g clip-path="url(#292d05e0ec)"><path fill="#ffffff" d="M 544.136719 565.796875 C 536.285156 577.859375 528.433594 589.921875 520.691406 602.175781 C 497.933594 638.894531 478.132812 672.734375 460.226562 705.46875 L 454.308594 716.054688 C 453.054688 718.195312 451.664062 720.242188 450.140625 722.203125 C 448.621094 724.164062 446.976562 726.015625 445.210938 727.761719 C 443.449219 729.507812 441.578125 731.132812 439.605469 732.636719 C 437.628906 734.136719 435.5625 735.507812 433.410156 736.742188 C 431.257812 737.976562 429.035156 739.0625 426.738281 740.007812 C 424.441406 740.953125 422.097656 741.746094 419.699219 742.382812 C 417.300781 743.023438 414.871094 743.503906 412.410156 743.828125 C 409.949219 744.148438 407.476562 744.3125 404.996094 744.3125 L 404.769531 744.3125 C 402.246094 744.292969 399.734375 744.109375 397.238281 743.757812 C 394.738281 743.40625 392.273438 742.890625 389.84375 742.214844 C 387.414062 741.539062 385.039062 740.707031 382.71875 739.714844 C 380.398438 738.722656 378.152344 737.585938 375.984375 736.296875 C 373.8125 735.011719 371.738281 733.585938 369.757812 732.023438 C 367.773438 730.464844 365.90625 728.777344 364.144531 726.96875 C 362.386719 725.160156 360.753906 723.246094 359.25 721.21875 C 357.742188 719.195312 356.378906 717.082031 355.152344 714.875 L 328.597656 666.703125 C 316.535156 644.777344 304.128906 623.265625 291.003906 602.214844 C 283.417969 590 275.148438 578.011719 267.222656 565.910156 C 177.394531 587.761719 120.492188 630.890625 120.492188 681.914062 C 120.492188 757.78125 242.792969 814.679688 404.996094 814.679688 C 567.199219 814.679688 689.496094 757.78125 689.496094 681.914062 C 689.496094 631.234375 632.976562 588.179688 544.136719 565.796875 Z M 544.136719 565.796875 " fill-opacity="1" fill-rule="nonzero"/></g><path fill="#ffffff" d="M 561.699219 74.179688 C 558.847656 71.832031 555.941406 69.550781 552.988281 67.335938 C 550.03125 65.121094 547.027344 62.972656 543.976562 60.890625 C 540.921875 58.8125 537.828125 56.800781 534.683594 54.859375 C 531.542969 52.917969 528.355469 51.046875 525.132812 49.25 C 521.90625 47.449219 518.640625 45.726562 515.335938 44.074219 C 512.03125 42.421875 508.691406 40.847656 505.316406 39.34375 C 501.941406 37.84375 498.535156 36.417969 495.097656 35.070312 C 491.660156 33.722656 488.191406 32.449219 484.695312 31.257812 C 481.199219 30.066406 477.679688 28.953125 474.132812 27.917969 C 470.585938 26.882812 467.019531 25.929688 463.429688 25.054688 C 459.839844 24.179688 456.234375 23.386719 452.609375 22.675781 C 448.984375 21.964844 445.347656 21.335938 441.695312 20.785156 C 438.042969 20.238281 434.378906 19.773438 430.703125 19.386719 C 427.03125 19.003906 423.351562 18.703125 419.664062 18.484375 C 415.976562 18.265625 412.285156 18.132812 408.59375 18.078125 C 404.898438 18.027344 401.207031 18.058594 397.515625 18.171875 C 393.820312 18.285156 390.132812 18.480469 386.453125 18.757812 C 382.769531 19.039062 379.09375 19.398438 375.425781 19.84375 C 371.757812 20.289062 368.105469 20.816406 364.460938 21.425781 C 360.816406 22.03125 357.191406 22.722656 353.578125 23.496094 C 349.964844 24.265625 346.371094 25.117188 342.796875 26.050781 C 339.226562 26.984375 335.671875 27.996094 332.144531 29.089844 C 328.617188 30.183594 325.113281 31.355469 321.640625 32.605469 C 318.164062 33.855469 314.71875 35.183594 311.300781 36.585938 C 307.886719 37.992188 304.503906 39.472656 301.152344 41.03125 C 297.804688 42.585938 294.492188 44.21875 291.214844 45.925781 C 287.9375 47.628906 284.703125 49.410156 281.503906 51.261719 C 278.308594 53.113281 275.15625 55.035156 272.046875 57.027344 C 268.9375 59.019531 265.871094 61.082031 262.855469 63.210938 C 259.839844 65.34375 256.871094 67.539062 253.953125 69.804688 C 251.035156 72.070312 248.167969 74.398438 245.355469 76.789062 C 242.539062 79.183594 239.78125 81.636719 237.078125 84.15625 C 234.375 86.671875 231.730469 89.246094 229.140625 91.882812 C 226.554688 94.519531 224.027344 97.210938 221.558594 99.960938 C 219.09375 102.710938 216.6875 105.515625 214.347656 108.371094 C 212.007812 111.230469 209.730469 114.136719 207.523438 117.097656 C 205.3125 120.054688 203.167969 123.0625 201.09375 126.121094 C 199.019531 129.175781 197.015625 132.277344 195.078125 135.421875 C 193.144531 138.570312 191.28125 141.757812 189.488281 144.988281 C 187.695312 148.21875 185.976562 151.484375 184.332031 154.792969 C 182.6875 158.097656 181.117188 161.441406 179.621094 164.820312 C 178.125 168.195312 176.707031 171.605469 175.367188 175.046875 C 174.023438 178.488281 172.761719 181.957031 171.574219 185.457031 C 170.386719 188.957031 169.28125 192.476562 168.253906 196.027344 C 167.226562 199.574219 166.277344 203.144531 165.410156 206.734375 C 164.542969 210.324219 163.757812 213.933594 163.054688 217.558594 C 162.347656 221.183594 161.726562 224.824219 161.183594 228.476562 C 160.640625 232.132812 160.183594 235.796875 159.804688 239.46875 C 159.429688 243.144531 159.136719 246.824219 158.921875 250.511719 C 158.710938 254.199219 158.582031 257.890625 158.539062 261.585938 C 158.492188 265.277344 158.53125 268.972656 158.652344 272.664062 C 158.769531 276.355469 158.972656 280.042969 159.261719 283.722656 C 159.546875 287.40625 159.914062 291.082031 160.367188 294.746094 C 160.816406 298.414062 161.351562 302.066406 161.96875 305.710938 C 162.582031 309.351562 163.28125 312.976562 164.058594 316.589844 C 164.835938 320.199219 165.695312 323.789062 166.636719 327.363281 C 167.574219 330.933594 168.59375 334.484375 169.695312 338.011719 C 170.792969 341.535156 171.972656 345.035156 173.230469 348.511719 C 174.484375 351.984375 175.820312 355.425781 177.230469 358.839844 C 178.640625 362.253906 180.128906 365.632812 181.691406 368.980469 C 183.257812 372.328125 184.894531 375.636719 186.605469 378.910156 C 188.316406 382.183594 190.101562 385.414062 191.960938 388.609375 C 193.816406 391.800781 195.746094 394.949219 197.746094 398.054688 C 199.742188 401.164062 201.8125 404.222656 203.949219 407.234375 L 217.300781 426.011719 C 253.183594 476.425781 290.324219 528.433594 323.171875 581.917969 C 336.640625 603.65625 349.386719 625.734375 361.75 648.191406 L 388.304688 696.367188 C 389.113281 697.835938 390.101562 699.175781 391.265625 700.382812 C 392.429688 701.59375 393.730469 702.628906 395.171875 703.492188 C 396.609375 704.355469 398.136719 705.015625 399.753906 705.472656 C 401.367188 705.929688 403.015625 706.167969 404.691406 706.191406 L 404.996094 706.191406 C 406.652344 706.191406 408.285156 705.976562 409.886719 705.550781 C 411.488281 705.125 413.007812 704.496094 414.445312 703.671875 C 415.882812 702.847656 417.1875 701.851562 418.367188 700.683594 C 419.542969 699.515625 420.546875 698.214844 421.382812 696.78125 L 426.960938 687.222656 C 445.242188 653.804688 465.425781 619.359375 488.601562 581.996094 C 529.570312 516.824219 573.457031 453.742188 607.21875 405.945312 C 609.410156 402.800781 611.527344 399.605469 613.570312 396.363281 C 615.613281 393.117188 617.582031 389.828125 619.472656 386.492188 C 621.359375 383.15625 623.171875 379.777344 624.90625 376.359375 C 626.636719 372.9375 628.289062 369.480469 629.859375 365.984375 C 631.433594 362.484375 632.921875 358.953125 634.328125 355.386719 C 635.734375 351.820312 637.058594 348.226562 638.296875 344.597656 C 639.539062 340.96875 640.691406 337.316406 641.761719 333.632812 C 642.832031 329.953125 643.8125 326.246094 644.710938 322.519531 C 645.609375 318.792969 646.417969 315.046875 647.140625 311.28125 C 647.863281 307.515625 648.496094 303.734375 649.042969 299.941406 C 649.589844 296.144531 650.046875 292.339844 650.417969 288.523438 C 650.785156 284.707031 651.066406 280.886719 651.257812 277.058594 C 651.449219 273.226562 651.550781 269.398438 651.5625 265.5625 C 651.574219 261.730469 651.5 257.898438 651.332031 254.066406 C 651.167969 250.238281 650.914062 246.414062 650.570312 242.59375 C 650.226562 238.777344 649.792969 234.96875 649.269531 231.167969 C 648.75 227.371094 648.140625 223.585938 647.445312 219.816406 C 646.746094 216.046875 645.960938 212.296875 645.089844 208.5625 C 644.21875 204.828125 643.257812 201.117188 642.214844 197.429688 C 641.167969 193.742188 640.039062 190.078125 638.824219 186.441406 C 637.609375 182.808594 636.308594 179.199219 634.925781 175.625 C 633.542969 172.050781 632.078125 168.507812 630.527344 165 C 628.980469 161.492188 627.351562 158.023438 625.640625 154.59375 C 623.933594 151.160156 622.144531 147.773438 620.273438 144.425781 C 618.40625 141.074219 616.464844 137.773438 614.441406 134.515625 C 612.421875 131.257812 610.324219 128.050781 608.152344 124.890625 C 605.984375 121.730469 603.738281 118.621094 601.421875 115.566406 C 599.109375 112.511719 596.722656 109.511719 594.265625 106.566406 C 591.8125 103.621094 589.289062 100.734375 586.699219 97.910156 C 584.109375 95.082031 581.457031 92.316406 578.738281 89.613281 C 576.019531 86.910156 573.238281 84.273438 570.398438 81.699219 C 567.558594 79.125 564.65625 76.617188 561.699219 74.179688 Z M 404.996094 381.136719 C 403.089844 381.136719 401.183594 381.089844 399.28125 380.996094 C 397.375 380.902344 395.476562 380.761719 393.578125 380.574219 C 391.679688 380.390625 389.789062 380.15625 387.902344 379.875 C 386.015625 379.597656 384.140625 379.269531 382.269531 378.898438 C 380.398438 378.527344 378.539062 378.109375 376.691406 377.644531 C 374.839844 377.183594 373.003906 376.675781 371.179688 376.121094 C 369.355469 375.566406 367.546875 374.96875 365.75 374.328125 C 363.953125 373.683594 362.175781 373 360.414062 372.269531 C 358.652344 371.539062 356.910156 370.765625 355.1875 369.953125 C 353.464844 369.136719 351.761719 368.28125 350.082031 367.382812 C 348.398438 366.484375 346.742188 365.542969 345.105469 364.5625 C 343.46875 363.582031 341.859375 362.5625 340.273438 361.503906 C 338.691406 360.445312 337.132812 359.347656 335.601562 358.210938 C 334.070312 357.078125 332.566406 355.902344 331.09375 354.695312 C 329.617188 353.484375 328.175781 352.238281 326.761719 350.960938 C 325.351562 349.679688 323.96875 348.363281 322.621094 347.015625 C 321.273438 345.667969 319.960938 344.289062 318.679688 342.875 C 317.398438 341.464844 316.152344 340.019531 314.945312 338.546875 C 313.734375 337.074219 312.5625 335.570312 311.425781 334.039062 C 310.292969 332.507812 309.195312 330.949219 308.132812 329.363281 C 307.074219 327.777344 306.054688 326.167969 305.074219 324.53125 C 304.09375 322.898438 303.15625 321.238281 302.257812 319.558594 C 301.359375 317.875 300.5 316.175781 299.6875 314.449219 C 298.871094 312.726562 298.097656 310.984375 297.371094 309.222656 C 296.640625 307.460938 295.953125 305.683594 295.3125 303.886719 C 294.667969 302.09375 294.070312 300.285156 293.519531 298.460938 C 292.964844 296.636719 292.457031 294.796875 291.992188 292.949219 C 291.53125 291.097656 291.113281 289.238281 290.738281 287.371094 C 290.367188 285.5 290.042969 283.621094 289.761719 281.734375 C 289.484375 279.851562 289.25 277.957031 289.0625 276.0625 C 288.875 274.164062 288.734375 272.261719 288.640625 270.359375 C 288.546875 268.453125 288.5 266.550781 288.5 264.644531 C 288.5 262.738281 288.546875 260.832031 288.640625 258.925781 C 288.734375 257.023438 288.875 255.121094 289.0625 253.222656 C 289.25 251.328125 289.484375 249.4375 289.761719 247.550781 C 290.042969 245.664062 290.367188 243.785156 290.738281 241.917969 C 291.113281 240.046875 291.53125 238.1875 291.992188 236.335938 C 292.457031 234.488281 292.964844 232.652344 293.519531 230.828125 C 294.070312 229.003906 294.667969 227.191406 295.3125 225.398438 C 295.953125 223.601562 296.640625 221.824219 297.371094 220.0625 C 298.097656 218.300781 298.871094 216.558594 299.6875 214.835938 C 300.5 213.113281 301.359375 211.410156 302.257812 209.726562 C 303.15625 208.046875 304.09375 206.386719 305.074219 204.753906 C 306.054688 203.117188 307.074219 201.507812 308.132812 199.921875 C 309.195312 198.335938 310.292969 196.777344 311.425781 195.246094 C 312.5625 193.714844 313.734375 192.214844 314.945312 190.738281 C 316.152344 189.265625 317.398438 187.824219 318.679688 186.410156 C 319.960938 184.996094 321.273438 183.617188 322.621094 182.269531 C 323.96875 180.921875 325.351562 179.605469 326.761719 178.328125 C 328.175781 177.046875 329.617188 175.800781 331.09375 174.59375 C 332.566406 173.382812 334.070312 172.210938 335.601562 171.074219 C 337.132812 169.9375 338.691406 168.839844 340.273438 167.78125 C 341.859375 166.722656 343.46875 165.703125 345.105469 164.722656 C 346.742188 163.742188 348.398438 162.804688 350.082031 161.90625 C 351.761719 161.003906 353.464844 160.148438 355.1875 159.332031 C 356.910156 158.519531 358.652344 157.746094 360.414062 157.015625 C 362.175781 156.285156 363.953125 155.601562 365.75 154.957031 C 367.546875 154.316406 369.355469 153.71875 371.179688 153.164062 C 373.003906 152.613281 374.839844 152.101562 376.691406 151.640625 C 378.539062 151.175781 380.398438 150.757812 382.269531 150.386719 C 384.140625 150.015625 386.015625 149.691406 387.902344 149.410156 C 389.789062 149.128906 391.679688 148.898438 393.578125 148.710938 C 395.476562 148.523438 397.375 148.382812 399.28125 148.289062 C 401.183594 148.195312 403.089844 148.148438 404.996094 148.148438 C 406.902344 148.148438 408.808594 148.195312 410.710938 148.289062 C 412.617188 148.382812 414.515625 148.523438 416.414062 148.710938 C 418.3125 148.898438 420.203125 149.128906 422.089844 149.410156 C 423.976562 149.691406 425.851562 150.015625 427.722656 150.386719 C 429.59375 150.757812 431.453125 151.175781 433.300781 151.640625 C 435.152344 152.101562 436.988281 152.613281 438.8125 153.164062 C 440.636719 153.71875 442.445312 154.316406 444.242188 154.957031 C 446.035156 155.601562 447.816406 156.285156 449.574219 157.015625 C 451.335938 157.746094 453.078125 158.519531 454.804688 159.332031 C 456.527344 160.148438 458.230469 161.003906 459.910156 161.90625 C 461.59375 162.804688 463.25 163.742188 464.886719 164.722656 C 466.519531 165.703125 468.132812 166.722656 469.714844 167.78125 C 471.300781 168.839844 472.859375 169.9375 474.390625 171.074219 C 475.921875 172.210938 477.425781 173.382812 478.898438 174.59375 C 480.371094 175.800781 481.816406 177.046875 483.226562 178.328125 C 484.640625 179.605469 486.019531 180.921875 487.371094 182.269531 C 488.71875 183.617188 490.03125 184.996094 491.3125 186.410156 C 492.59375 187.824219 493.835938 189.265625 495.046875 190.738281 C 496.257812 192.214844 497.429688 193.714844 498.566406 195.246094 C 499.699219 196.777344 500.796875 198.335938 501.855469 199.921875 C 502.917969 201.507812 503.9375 203.117188 504.914062 204.753906 C 505.894531 206.386719 506.835938 208.046875 507.734375 209.726562 C 508.632812 211.410156 509.488281 213.113281 510.304688 214.835938 C 511.121094 216.558594 511.890625 218.300781 512.621094 220.0625 C 513.351562 221.824219 514.039062 223.601562 514.679688 225.398438 C 515.324219 227.191406 515.921875 229.003906 516.472656 230.828125 C 517.027344 232.652344 517.535156 234.488281 518 236.335938 C 518.460938 238.1875 518.878906 240.046875 519.25 241.917969 C 519.625 243.785156 519.949219 245.664062 520.230469 247.550781 C 520.507812 249.4375 520.742188 251.328125 520.929688 253.222656 C 521.117188 255.121094 521.257812 257.023438 521.347656 258.925781 C 521.441406 260.832031 521.488281 262.738281 521.488281 264.644531 C 521.488281 266.546875 521.4375 268.453125 521.34375 270.355469 C 521.246094 272.261719 521.105469 274.160156 520.914062 276.058594 C 520.726562 277.953125 520.492188 279.84375 520.210938 281.730469 C 519.925781 283.613281 519.601562 285.492188 519.226562 287.359375 C 518.851562 289.226562 518.433594 291.085938 517.96875 292.933594 C 517.503906 294.785156 516.996094 296.621094 516.441406 298.441406 C 515.886719 300.265625 515.285156 302.074219 514.640625 303.867188 C 514 305.664062 513.3125 307.441406 512.582031 309.199219 C 511.851562 310.960938 511.078125 312.703125 510.261719 314.425781 C 509.445312 316.144531 508.589844 317.847656 507.691406 319.527344 C 506.789062 321.207031 505.851562 322.867188 504.871094 324.5 C 503.890625 326.132812 502.871094 327.742188 501.808594 329.328125 C 500.75 330.914062 499.652344 332.46875 498.519531 334 C 497.382812 335.53125 496.210938 337.03125 495 338.503906 C 493.792969 339.976562 492.546875 341.421875 491.265625 342.832031 C 489.988281 344.246094 488.671875 345.625 487.324219 346.972656 C 485.976562 348.320312 484.597656 349.632812 483.1875 350.914062 C 481.773438 352.195312 480.332031 353.4375 478.859375 354.648438 C 477.386719 355.855469 475.882812 357.03125 474.351562 358.164062 C 472.820312 359.300781 471.265625 360.398438 469.679688 361.457031 C 468.097656 362.515625 466.488281 363.535156 464.851562 364.515625 C 463.21875 365.496094 461.5625 366.4375 459.878906 367.335938 C 458.199219 368.234375 456.5 369.09375 454.777344 369.910156 C 453.054688 370.726562 451.3125 371.5 449.550781 372.230469 C 447.792969 372.960938 446.015625 373.644531 444.222656 374.289062 C 442.425781 374.933594 440.617188 375.53125 438.796875 376.085938 C 436.972656 376.640625 435.136719 377.152344 433.289062 377.617188 C 431.441406 378.082031 429.582031 378.5 427.710938 378.875 C 425.84375 379.246094 423.964844 379.574219 422.082031 379.855469 C 420.195312 380.136719 418.304688 380.375 416.410156 380.5625 C 414.511719 380.75 412.613281 380.894531 410.710938 380.988281 C 408.804688 381.085938 406.902344 381.132812 404.996094 381.136719 Z M 404.996094 381.136719 " fill-opacity="1" fill-rule="nonzero"/><g clip-path="url(#464c6bf53e)"><path fill="#ffffff" d="M 544.136719 565.796875 C 536.285156 577.859375 528.433594 589.921875 520.691406 602.175781 C 497.933594 638.894531 478.132812 672.734375 460.226562 705.46875 L 454.308594 716.054688 C 453.054688 718.195312 451.664062 720.242188 450.140625 722.203125 C 448.621094 724.164062 446.976562 726.015625 445.210938 727.761719 C 443.449219 729.507812 441.578125 731.132812 439.605469 732.636719 C 437.628906 734.136719 435.5625 735.507812 433.410156 736.742188 C 431.257812 737.976562 429.035156 739.0625 426.738281 740.007812 C 424.441406 740.953125 422.097656 741.746094 419.699219 742.382812 C 417.300781 743.023438 414.871094 743.503906 412.410156 743.828125 C 409.949219 744.148438 407.476562 744.3125 404.996094 744.3125 L 404.769531 744.3125 C 402.246094 744.292969 399.734375 744.109375 397.238281 743.757812 C 394.738281 743.40625 392.273438 742.890625 389.84375 742.214844 C 387.414062 741.539062 385.039062 740.707031 382.71875 739.714844 C 380.398438 738.722656 378.152344 737.585938 375.984375 736.296875 C 373.8125 735.011719 371.738281 733.585938 369.757812 732.023438 C 367.773438 730.464844 365.90625 728.777344 364.144531 726.96875 C 362.386719 725.160156 360.753906 723.246094 359.25 721.21875 C 357.742188 719.195312 356.378906 717.082031 355.152344 714.875 L 328.597656 666.703125 C 316.535156 644.777344 304.128906 623.265625 291.003906 602.214844 C 283.417969 590 275.148438 578.011719 267.222656 565.910156 C 177.394531 587.761719 120.492188 630.890625 120.492188 681.914062 C 120.492188 757.78125 242.792969 814.679688 404.996094 814.679688 C 567.199219 814.679688 689.496094 757.78125 689.496094 681.914062 C 689.496094 631.234375 632.976562 588.179688 544.136719 565.796875 Z M 544.136719 565.796875 " fill-opacity="1" fill-rule="nonzero"/></g></svg>