<svg width="643" height="144" viewBox="0 0 643 144" fill="none" xmlns="http://www.w3.org/2000/svg">
<path d="M637.336 97.6982C642.129 94.9547 643.791 88.845 641.047 84.0518L596.341 5.94087C593.597 1.1476 587.487 -0.514129 582.694 2.2293C577.901 4.97272 576.239 11.0824 578.983 15.8757L618.722 85.3076L549.29 125.047C544.497 127.79 542.835 133.9 545.578 138.693C548.322 143.487 554.432 145.148 559.225 142.405L637.336 97.6982ZM7.07802 105.515C120.235 68.9125 210.159 49.4867 304.406 47.9626C398.704 46.4377 497.952 62.8237 629.744 98.6686L634.993 79.3697C502.312 43.2829 401.026 26.3975 304.083 27.9652C207.09 29.5337 115.066 49.5645 0.92269 86.4859L7.07802 105.515Z" fill="black"/>
</svg>
