<svg width="1898" height="2810" viewBox="0 0 1898 2810" fill="none" xmlns="http://www.w3.org/2000/svg">
<path d="M1891.64 2719.28C1898 2713.98 1898.85 2704.52 1893.55 2698.15L1807.08 2594.48C1801.77 2588.12 1792.31 2587.27 1785.95 2592.57C1779.59 2597.88 1778.73 2607.34 1784.04 2613.7L1860.9 2705.85L1768.75 2782.72C1762.39 2788.02 1761.53 2797.48 1766.84 2803.84C1772.14 2810.2 1781.6 2811.06 1787.97 2805.75L1891.64 2719.28ZM206.861 0.312842C-169.488 1067.68 10.6013 1728.76 407.666 2133.17C803.258 2536.09 1410.57 2680.18 1880.68 2722.7L1883.38 2692.82C1415.37 2650.49 817.032 2507.29 429.073 2112.16C42.5875 1718.52 -138.775 1070.8 235.154 10.2887L206.861 0.312842Z" fill="black"/>
</svg>
