<?xml version="1.0" encoding="UTF-8"?>
<!DOCTYPE svg PUBLIC "-//W3C//DTD SVG 1.1//EN" "http://www.w3.org/Graphics/SVG/1.1/DTD/svg11.dtd">
<!-- Creator: CorelDRAW X6 -->
<svg xmlns="http://www.w3.org/2000/svg" xml:space="preserve" width="11.6929in" height="8.26772in" version="1.1" style="shape-rendering:geometricPrecision; text-rendering:geometricPrecision; image-rendering:optimizeQuality; fill-rule:evenodd; clip-rule:evenodd"
viewBox="0 0 11693 8268"
 xmlns:xlink="http://www.w3.org/1999/xlink">
 <defs>
  <style type="text/css">
   <![CDATA[
    .str1 {stroke:#E32929;stroke-width:6.94488}
    .str0 {stroke:#FF611D;stroke-width:6.94488}
    .fil0 {fill:#E32929}
    .fil2 {fill:#FF611D}
    .fil1 {fill:#FFB80E}
    .fil3 {fill:white}
   ]]>
  </style>
 </defs>
 <g id="Layer_x0020_1">
  <metadata id="CorelCorpID_0Corel-Layer"/>
  <g id="_193157328">
   <path class="fil0" d="M2003 2748l1 54c-8,56 -2,1347 -2,1469 0,69 -7,295 -3,419l0 0 4 301 -1 645c-5,419 353,843 608,843l148 0c35,-203 170,-395 395,-449 402,-96 664,154 735,448l1257 -1c598,0 1167,-86 1420,-680 26,-61 48,-129 66,-199 -321,47 -662,74 -1020,74 -134,-12 -209,-41 -370,-70 -176,-32 -436,-38 -617,-28 -145,8 -270,1 -394,-39 -137,-44 -294,-114 -407,-183 -151,-93 -364,-238 -494,-349 -24,-21 -47,-33 -71,-54 -26,-23 -33,-28 -66,-51 -27,-19 -43,-37 -70,-55 -23,-15 -40,-21 -42,-51 -5,-74 139,5 152,11 227,100 447,218 671,318 169,76 207,121 269,56 -5,-52 -10,-58 -44,-76 -282,-145 -583,-287 -862,-433 -88,-46 -105,-34 -99,-93 44,-33 98,4 141,24 48,21 88,38 136,58 96,41 182,82 274,120 92,39 181,80 275,120 81,35 246,130 275,53 1,-75 -59,-85 -108,-106l-687 -296c-55,-24 -309,-107 -215,-159 26,-15 249,77 288,92l572 210c50,18 96,36 145,54 59,23 118,15 101,-70 -18,-28 -466,-197 -533,-222l-401 -163c-59,-34 -101,-26 -102,-89 50,-30 263,22 332,32 1399,203 1241,661 1585,804 45,19 174,43 263,48 0,0 449,88 1186,-59 0,9 0,17 0,26 0,-57 -2,-114 -6,-169 -37,-498 -265,-936 -707,-1135 -39,-17 -169,-60 -188,-72 55,-23 98,-46 146,-75 56,-33 86,-62 131,-96 28,-22 28,-23 55,-52 252,-268 341,-503 341,-931 0,-470 -140,-837 -400,-1049 -308,-251 -685,-290 -1164,-290 -49,0 -1451,-5 -2288,-3 -343,1 -591,2 -613,6l0 441 0 896c195,11 410,16 598,-18 88,-16 171,-40 246,-74 37,-17 67,-36 98,-59 40,-29 55,-52 78,-85 70,-98 238,-224 351,-282 156,-80 338,-120 537,-120 442,0 984,223 1254,428 132,100 326,303 176,549 -87,144 -290,274 -479,368 -404,200 -898,312 -1368,120 -188,-77 -308,-158 -441,-292 -23,-23 -27,-32 -46,-61 -213,-314 -639,-258 -1003,-248zm4636 2816c3,-11 5,-23 8,-34 -2,11 -5,23 -8,34zm17 -79c4,-20 7,-40 11,-60 -3,20 -7,40 -11,60zm15 -88c1,-6 2,-12 2,-17 -1,6 -2,12 -2,17zm2 -17c2,-15 4,-30 6,-45 -2,15 -4,30 -6,45zm11 -91c3,-27 5,-54 6,-81 -2,27 -4,54 -6,81zm8 -100c1,-15 2,-30 2,-45 -1,15 -1,30 -2,45zm3 -82c0,-12 0,-24 1,-36 0,12 0,24 -1,36z"/>
   <path class="fil0" d="M8508 6415c156,-25 286,-79 426,-151 189,-97 242,-159 386,-276 129,32 555,301 847,-50 94,-112 89,-192 121,-261l0 -204c-14,-30 -21,-78 -35,-112 -54,-134 -136,-247 -249,-335 -29,-23 -51,-39 -83,-59 -75,-46 -177,-80 -197,-93 -10,-62 -17,-172 -47,-217 -60,28 -134,79 -196,116 -34,20 -61,48 -109,49 -238,8 -393,61 -570,204 -30,24 -56,47 -82,74 -43,44 -33,31 -101,55 -375,134 -419,450 -443,481 -47,-23 -109,-67 -142,-99l-108 -105c-235,84 -491,160 -768,223 29,47 54,86 65,103 206,293 439,516 792,624 162,49 328,57 494,31z"/>
   <path class="fil1" d="M8969 5120l23 15c120,49 202,44 347,166 19,16 8,11 19,14 -21,1 -107,-29 -141,-36 -345,-76 -819,39 -880,421 303,24 259,-77 477,-60 154,12 294,74 425,130 224,97 605,315 802,58 89,-117 121,-256 53,-423 -192,-471 -905,-503 -1126,-285z"/>
   <path class="fil0" d="M3579 2141c168,-7 206,-39 449,-26 147,8 273,30 408,67 402,110 573,253 677,287 -38,-60 -214,-178 -294,-223 -113,-63 -227,-114 -361,-152 -135,-38 -311,-67 -459,-56 -127,9 -331,42 -421,101z"/>
   <path class="fil0" d="M6786 5573c1690,-288 2778,-1115 2740,-1266 -2,-6 -3,-13 -5,-19 -7,-64 -47,-149 -107,-241 -47,-77 -104,-149 -165,-219l0 0c-182,-215 -413,-423 -555,-495 -112,-56 -239,-96 -383,-109 -384,-34 -823,166 -1076,395 -51,46 -81,80 -126,123 -36,35 -77,92 -109,140 -95,143 -166,326 -192,528 -7,273 169,968 -22,1162zm1794 -1298c-187,111 -368,208 -543,292 -151,57 -302,113 -482,135 -100,-363 76,-607 326,-721 216,-99 360,-59 524,63 39,29 173,180 184,223 -3,3 -6,5 -9,8z"/>
   <path class="fil2 str0" d="M1406 6289c0,0 547,55 1370,113 -23,75 -32,154 -26,230 -431,-90 -880,-203 -1345,-343zm2480 181c910,47 1958,80 2945,58 -3,17 -5,34 -6,51 -11,52 -15,108 -11,166 3,48 12,93 25,134 -816,82 -1811,94 -2959,-56 35,-112 37,-237 7,-353zm4076 5c543,-42 1034,-109 1432,-208 0,0 -494,241 -1404,435 2,-26 2,-52 1,-79 -2,-52 -12,-101 -29,-147z"/>
   <path class="fil2" d="M3176 6180c615,-147 813,747 274,893 -253,68 -485,-82 -566,-319 -73,-215 33,-511 292,-573zm125 281c226,-56 308,283 84,334 -195,44 -301,-280 -84,-334z"/>
   <path class="fil2" d="M7822 6640c24,573 -807,593 -843,88 -17,-237 158,-418 383,-449 204,-28 450,119 460,360zm-272 63c11,211 -306,225 -312,17 -6,-181 302,-219 312,-17z"/>
   <ellipse class="fil0 str1" transform="matrix(3.02169 -1.09469 0.644154 1.77808 7702.19 3338.39)" rx="89" ry="94"/>
   <path class="fil3" d="M7634 3206c0,0 -204,101 -156,249 0,0 41,-1 61,-7 0,0 -110,-100 94,-242z"/>
   <path class="fil3" d="M7661 3194c0,0 207,-73 264,80 0,0 -10,21 -93,55 0,0 37,-155 -171,-135z"/>
   <path class="fil3" d="M7555 3526c-769,483 -557,1458 -541,1756 4,72 -89,122 47,95 65,-13 105,-3 109,-53 22,-263 -258,-1087 384,-1797z"/>
   <path class="fil3" d="M7896 3428c0,0 856,-314 1510,860 0,0 -181,240 -328,305 -147,65 -170,65 -170,65 0,0 239,-114 326,-314 0,0 -465,-1054 -1338,-916z"/>
  </g>
 </g>
</svg>
