<?xml version="1.0" encoding="UTF-8"?>
<!DOCTYPE svg PUBLIC "-//W3C//DTD SVG 1.1//EN" "http://www.w3.org/Graphics/SVG/1.1/DTD/svg11.dtd">
<!-- Creator: CorelDRAW X6 -->
<svg xmlns="http://www.w3.org/2000/svg" xml:space="preserve" width="11.6929in" height="8.26772in" version="1.1" style="shape-rendering:geometricPrecision; text-rendering:geometricPrecision; image-rendering:optimizeQuality; fill-rule:evenodd; clip-rule:evenodd"
viewBox="0 0 11693 8268"
 xmlns:xlink="http://www.w3.org/1999/xlink">
 <defs>
  <style type="text/css">
   <![CDATA[
    .str2 {stroke:white;stroke-width:2.71654}
    .str0 {stroke:#FF611D;stroke-width:3.26378}
    .str1 {stroke:white;stroke-width:150.992}
    .fil0 {fill:#E32929}
    .fil2 {fill:#FF611D}
    .fil1 {fill:#FFB80E}
    .fil4 {fill:white}
    .fil3 {fill:#E32929;fill-rule:nonzero}
    .fil6 {fill:#FF611D;fill-rule:nonzero}
    .fil5 {fill:white;fill-rule:nonzero}
   ]]>
  </style>
 </defs>
 <g id="Layer_x0020_1">
  <metadata id="CorelCorpID_0Corel-Layer"/>
  <g id="_197795712">
   <g>
    <path class="fil0" d="M450 3483l0 25c-4,26 -1,633 -1,691 0,32 -3,139 -1,197l0 0 2 142 0 303c-2,197 166,396 286,396l69 0c16,-96 80,-186 185,-211 189,-45 312,72 345,210l591 0c281,0 549,-40 667,-320 12,-29 23,-60 31,-94 -151,22 -311,35 -479,35 -63,-6 -98,-19 -174,-33 -83,-15 -205,-18 -290,-13 -68,4 -127,0 -185,-18 -64,-21 -138,-53 -191,-86 -71,-44 -171,-112 -232,-164 -11,-10 -22,-15 -33,-25 -12,-11 -16,-13 -31,-24 -13,-9 -20,-18 -33,-26 -11,-7 -19,-10 -20,-24 -3,-35 65,3 71,5 106,47 210,102 316,150 79,36 97,57 127,26 -2,-25 -5,-27 -21,-36 -132,-68 -274,-135 -405,-204 -41,-22 -49,-16 -47,-44 21,-15 46,2 66,11 23,10 41,18 64,27 45,19 85,38 129,57 43,18 85,37 129,57 38,17 116,61 129,25 1,-35 -28,-40 -51,-50l-323 -139c-26,-11 -145,-50 -101,-75 12,-7 117,36 135,43l269 99c23,9 45,17 68,26 28,11 55,7 47,-33 -9,-13 -219,-93 -250,-105l-189 -76c-28,-16 -47,-12 -48,-42 24,-14 124,10 156,15 657,95 583,311 745,378 21,9 82,20 124,23 0,0 211,41 557,-28 0,4 0,8 0,12 0,-27 -1,-53 -3,-79 -17,-234 -125,-440 -332,-533 -18,-8 -80,-28 -88,-34 26,-11 46,-21 69,-35 26,-16 41,-29 62,-45 13,-10 13,-11 26,-24 118,-126 160,-237 160,-438 0,-221 -66,-393 -188,-493 -145,-118 -322,-137 -547,-137 -23,0 -682,-2 -1075,-1 -161,0 -278,1 -288,3l0 207 0 421c92,5 193,7 281,-8 41,-7 81,-19 116,-35 17,-8 32,-17 46,-28 19,-14 26,-24 37,-40 33,-46 112,-105 165,-133 73,-38 159,-56 252,-57 208,0 463,105 589,201 62,47 153,142 83,258 -41,68 -137,129 -225,173 -190,94 -422,147 -643,56 -88,-36 -145,-74 -207,-137 -11,-11 -13,-15 -22,-29 -100,-148 -300,-121 -471,-116zm2179 1323c1,-5 2,-11 4,-16 -1,5 -2,11 -4,16zm8 -37c2,-9 3,-19 5,-28 -2,10 -3,19 -5,28zm7 -41c0,-3 1,-5 1,-8 0,3 -1,5 -1,8zm1 -8c1,-7 2,-14 3,-21 -1,7 -2,14 -3,21zm5 -43c1,-13 2,-25 3,-38 -1,13 -2,26 -3,38zm4 -47c0,-7 1,-14 1,-21 0,7 -1,14 -1,21zm1 -38c0,-6 0,-11 0,-17 0,6 0,11 0,17z"/>
    <path class="fil0" d="M3507 5206c74,-12 135,-37 200,-71 89,-46 114,-75 181,-130 61,15 261,142 398,-23 44,-53 42,-90 57,-123l0 -96c-7,-14 -10,-37 -16,-53 -26,-63 -64,-116 -117,-157 -14,-11 -24,-18 -39,-28 -35,-21 -83,-38 -93,-44 -5,-29 -8,-81 -22,-102 -28,13 -63,37 -92,55 -16,9 -29,22 -51,23 -112,4 -185,29 -268,96 -14,11 -26,22 -39,35 -20,21 -15,15 -47,26 -176,63 -197,211 -208,226 -22,-11 -51,-32 -67,-46l-51 -50c-110,39 -231,75 -361,105 14,22 25,41 31,48 97,138 206,243 372,293 76,23 154,27 232,15z"/>
    <path class="fil1" d="M3724 4597l11 7c56,23 95,21 163,78 9,7 4,5 9,6 -10,0 -50,-14 -66,-17 -162,-36 -385,19 -413,198 143,11 122,-36 224,-28 72,6 138,35 200,61 105,46 284,148 377,27 42,-55 57,-120 25,-199 -90,-221 -426,-236 -529,-134z"/>
    <path class="fil0" d="M1191 3197c79,-3 97,-18 211,-12 69,4 128,14 192,32 189,52 269,119 318,135 -18,-28 -101,-84 -138,-105 -53,-30 -107,-53 -169,-71 -63,-18 -146,-31 -216,-26 -59,4 -156,20 -198,48z"/>
    <path class="fil0" d="M2698 4810c794,-135 1305,-524 1288,-595 -1,-3 -2,-6 -2,-9 -3,-30 -22,-70 -50,-113 -22,-36 -49,-70 -78,-103l0 0c-86,-101 -194,-199 -261,-232 -53,-26 -112,-45 -180,-51 -180,-16 -387,78 -506,186 -24,22 -38,37 -59,58 -17,17 -36,43 -51,66 -45,67 -78,153 -90,248 -3,128 79,455 -11,546zm843 -610c-88,52 -173,98 -255,137 -71,27 -142,53 -227,63 -47,-171 36,-285 153,-339 101,-46 169,-28 246,30 19,14 81,84 87,105 -1,1 -3,3 -4,4z"/>
    <path class="fil2 str0" d="M169 5147c0,0 257,26 644,53 -11,35 -15,72 -12,108 -203,-42 -413,-96 -632,-161zm1165 85c428,22 920,37 1384,27 -1,8 -2,16 -3,24 -5,25 -7,51 -5,78 2,23 6,44 12,63 -384,39 -851,44 -1391,-26 17,-53 17,-111 3,-166zm1915 3c255,-20 486,-51 673,-98 0,0 -232,113 -660,204 1,-12 1,-24 0,-37 -1,-25 -6,-48 -14,-69z"/>
    <path class="fil2" d="M1001 5095c289,-69 382,351 129,419 -119,32 -228,-38 -266,-150 -34,-101 16,-240 137,-269zm59 132c106,-27 145,133 39,157 -92,21 -141,-131 -39,-157z"/>
    <path class="fil2" d="M3185 5311c11,269 -379,279 -396,42 -8,-112 74,-196 180,-211 96,-13 211,56 216,169zm-128 29c5,99 -144,106 -147,8 -3,-85 142,-103 147,-8z"/>
    <g>
     <path class="fil0" d="M3100 3681c70,-25 139,-11 155,33 16,43 -28,99 -98,124 -70,25 -139,11 -155,-33 -16,-43 28,-99 98,-124z"/>
     <path id="1" class="fil3" d="M3257 3714l-3 1 0 0 -2 -4 -2 -4 -2 -4 -2 -3 -3 -3 -3 -3 -3 -3 -3 -3 -4 -3 -4 -2 -4 -2 -4 -2 -5 -2 -5 -2 -5 -1 -5 -1 -5 -1 -5 -1 -6 -1 -6 0 -6 0 -6 0 -6 0 -6 0 -6 1 -6 1 -6 1 -6 1 -6 2 -6 2 -6 2 -7 2 -1 -3 7 -2 7 -2 7 -2 7 -2 6 -1 6 -1 6 -1 6 -1 6 0 6 0 6 0 6 0 6 0 6 1 6 1 5 1 5 1 5 1 5 2 5 2 5 2 4 2 4 2 4 3 4 3 3 3 3 3 3 3 3 4 2 4 2 4 2 4 0 0zm-99 127l-1 -3 0 0 6 -2 6 -3 6 -3 6 -3 6 -3 6 -3 5 -3 5 -3 5 -4 5 -4 5 -4 4 -4 4 -4 4 -4 4 -4 3 -4 3 -4 3 -4 3 -4 2 -4 2 -4 2 -4 2 -4 1 -4 1 -4 1 -4 0 -4 0 -4 0 -4 -1 -4 -1 -4 -1 -4 3 -1 1 4 1 4 1 4 0 4 0 4 0 4 -1 4 -1 4 -1 4 -2 4 -2 4 -2 4 -2 4 -3 4 -3 4 -3 4 -3 4 -4 4 -4 4 -4 4 -4 4 -5 4 -5 4 -5 4 -5 4 -5 3 -6 3 -6 3 -6 3 -6 3 -6 3 -7 2 0 0zm-157 -34l3 -1 0 0 2 4 2 4 2 4 2 3 3 3 3 3 3 3 3 3 4 3 4 2 4 2 4 2 5 2 5 2 5 1 5 1 5 1 5 1 6 1 6 0 6 0 6 0 6 0 6 0 6 -1 6 -1 6 -1 6 -1 6 -2 6 -2 6 -2 7 -2 1 3 -7 2 -7 2 -7 2 -7 2 -6 1 -6 1 -6 1 -6 1 -6 0 -6 0 -6 0 -6 0 -6 0 -6 -1 -6 -1 -5 -1 -5 -1 -5 -1 -5 -2 -5 -2 -5 -2 -4 -2 -4 -2 -4 -3 -4 -3 -3 -3 -3 -3 -3 -3 -3 -4 -2 -4 -2 -4 -2 -4 0 0zm99 -127l1 3 0 0 -6 2 -6 3 -6 3 -6 3 -6 3 -6 3 -5 3 -5 3 -5 4 -5 4 -5 4 -4 4 -4 4 -4 4 -4 4 -3 4 -3 4 -3 4 -3 4 -2 4 -2 4 -2 4 -2 4 -1 4 -1 4 -1 4 0 4 0 4 0 4 1 4 1 4 1 4 -3 1 -1 -4 -1 -4 -1 -4 0 -4 0 -4 0 -4 1 -4 1 -4 1 -4 2 -4 2 -4 2 -4 2 -4 3 -4 3 -4 3 -4 4 -4 4 -4 4 -4 4 -4 4 -4 5 -4 5 -4 5 -4 5 -4 5 -3 6 -3 6 -3 6 -3 6 -3 6 -3 7 -2 0 0z"/>
    </g>
    <path class="fil4" d="M3096 3698c0,0 -96,48 -73,117 0,0 19,0 29,-3 0,0 -52,-47 44,-114z"/>
    <path class="fil4" d="M3109 3692c0,0 97,-34 124,37 0,0 -5,10 -44,26 0,0 17,-73 -81,-63z"/>
    <path class="fil4" d="M3059 3848c-361,227 -262,685 -254,825 2,34 -42,57 22,45 31,-6 49,-1 51,-25 11,-123 -121,-511 181,-845z"/>
    <path class="fil4" d="M3220 3802c0,0 402,-148 710,404 0,0 -85,113 -154,143 -69,31 -80,31 -80,31 0,0 112,-54 153,-148 0,0 -218,-495 -629,-430z"/>
   </g>
   <g id="_197796336">
    <path class="fil3" d="M5619 4789c0,-105 -44,-205 -120,-276 16,-37 23,-79 23,-120 0,-178 -143,-321 -321,-321l-292 0c-107,0 -195,86 -195,193l0 750c0,83 67,150 150,150l378 0c208,0 377,-169 377,-377zm-603 -417l176 0c29,0 34,27 34,39 0,10 -10,37 -34,37l-176 0 0 -76zm226 491l-226 0 0 -149 226 0c42,0 74,33 74,74 0,42 -33,74 -74,74l0 0zm1333 -642c0,-83 -69,-150 -152,-150 -83,0 -150,67 -150,150l0 246 -259 0 0 -246c0,-83 -69,-150 -152,-150 -83,0 -150,67 -150,150l0 793c0,83 67,150 150,150 83,0 152,-67 152,-150l0 -246 259 0 0 246c0,83 67,150 150,150 83,0 152,-67 152,-150l0 -793zm736 851c24,59 80,93 139,93 20,0 40,-4 59,-11 76,-32 113,-120 82,-198l-331 -796c-23,-56 -77,-93 -139,-93 -62,0 -117,37 -140,95l-319 796c-32,77 6,166 83,196 19,7 37,11 56,11 63,0 117,-37 140,-95l32 -77 306 0 33 79zm-238 -381l50 -160 49 160 -99 0zm1300 -620c-73,0 -148,52 -152,149l0 369 -266 -445c-21,-36 -67,-73 -135,-73 -70,0 -146,57 -146,150l0 793c0,83 67,150 150,150 83,0 152,-67 152,-150l0 -328 266 404c17,34 63,74 140,74 57,0 140,-47 140,-152l0 -793c-4,-97 -79,-149 -150,-149zm553 358c0,-59 97,-62 116,-62 113,0 155,95 272,95l3 -1c52,-11 90,-49 106,-99 17,-49 6,-102 -29,-142 -62,-70 -172,-155 -352,-155 -246,0 -418,150 -418,364 0,382 619,213 619,385 0,57 -107,49 -165,49 -231,0 -160,-136 -299,-136 -93,0 -139,100 -122,175 4,20 64,264 421,264 408,0 467,-262 467,-337 0,-451 -619,-198 -619,-400zm1570 -208c0,-83 -69,-150 -152,-150 -83,0 -150,67 -150,150l0 246 -259 0 0 -246c0,-83 -69,-150 -152,-150 -83,0 -150,67 -150,150l0 793c0,83 67,150 150,150 83,0 152,-67 152,-150l0 -246 259 0 0 246c0,83 67,150 150,150 83,0 152,-67 152,-150l0 -793zm736 851c24,59 80,93 139,93 20,0 40,-4 59,-11 76,-32 113,-120 82,-198l-331 -796c-23,-56 -77,-93 -139,-93 -62,0 -117,37 -140,95l-319 796c-32,77 6,166 83,196 19,7 37,11 56,11 63,0 117,-37 140,-95l32 -77 306 0 33 79zm-238 -381l50 -160 49 160 -99 0z"/>
    <path class="fil5 str1" d="M8787 5055c38,0 68,-31 68,-68 0,-38 -31,-68 -68,-68l-222 0c-49,0 -88,39 -88,88l0 340c0,38 31,68 68,68l242 0c38,0 68,-31 68,-68 0,-38 -31,-69 -68,-69l-173 0 0 -43 118 0c38,0 69,-31 69,-68 0,-38 -31,-68 -69,-68l-118 0 0 -44 173 0zm489 -122c-12,-10 -27,-15 -42,-15 -20,0 -40,9 -54,27l-88 111 -88 -111c-11,-14 -27,-23 -45,-26 -18,-2 -36,3 -51,14 -14,12 -23,28 -25,45 -3,18 3,36 14,51l108 138 -108 138c-23,29 -18,73 11,96 12,10 27,15 42,15 21,0 41,-10 54,-26l88 -112 88 112c13,16 32,26 54,26 15,0 30,-5 42,-15 29,-23 34,-66 11,-96l-108 -138 108 -138c23,-30 18,-73 -11,-96zm297 -16l-159 0c-38,0 -68,31 -68,68l0 362c0,38 31,68 68,68 38,0 69,-31 69,-68l0 -88 90 0c94,0 171,-77 171,-171 0,-94 -77,-171 -171,-171zm34 171c0,19 -15,34 -34,34l-90 0 0 -68 90 0c19,0 34,15 34,34zm312 259l0 -88 19 0 100 130c13,17 33,27 54,27 16,0 30,-5 42,-14 30,-23 35,-66 12,-96l-52 -69c52,-30 86,-86 86,-148 0,-94 -77,-171 -171,-171l-159 0c-38,0 -68,31 -68,68l0 362c0,38 31,68 68,68 38,0 69,-31 69,-68zm90 -293c19,0 34,15 34,34 0,19 -15,34 -34,34l-90 0 0 -68 90 0zm526 1c38,0 68,-31 68,-68 0,-38 -31,-68 -68,-68l-222 0c-49,0 -88,39 -88,88l0 340c0,38 31,68 68,68l242 0c38,0 68,-31 68,-68 0,-38 -31,-69 -68,-69l-173 0 0 -43 118 0c38,0 69,-31 69,-68 0,-38 -31,-68 -69,-68l-118 0 0 -44 173 0zm234 26c0,-27 44,-28 53,-28 51,0 70,43 123,43l1 -1c23,-5 41,-22 48,-45 8,-22 3,-46 -13,-64 -28,-32 -78,-70 -160,-70 -112,0 -190,68 -190,165 0,173 281,96 281,175 0,26 -49,22 -75,22 -105,0 -73,-62 -136,-62 -42,0 -63,46 -55,79 2,9 29,120 191,120 185,0 212,-119 212,-153 0,-205 -281,-90 -281,-181zm442 0c0,-27 44,-28 53,-28 51,0 70,43 123,43l1 -1c23,-5 41,-22 48,-45 8,-22 3,-46 -13,-64 -28,-32 -78,-70 -160,-70 -112,0 -190,68 -190,165 0,173 281,96 281,175 0,26 -49,22 -75,22 -105,0 -73,-62 -136,-62 -42,0 -63,46 -55,79 2,9 29,120 191,120 185,0 212,-119 212,-153 0,-205 -281,-90 -281,-181z"/>
    <rect class="fil4 str2" x="8813" y="5056" width="221" height="245"/>
    <path class="fil6" d="M8787 5055c38,0 68,-31 68,-68 0,-38 -31,-68 -68,-68l-222 0c-49,0 -88,39 -88,88l0 340c0,38 31,68 68,68l242 0c38,0 68,-31 68,-68 0,-38 -31,-69 -68,-69l-173 0 0 -43 118 0c38,0 69,-31 69,-68 0,-38 -31,-68 -69,-68l-118 0 0 -44 173 0zm489 -122c-12,-10 -27,-15 -42,-15 -20,0 -40,9 -54,27l-88 111 -88 -111c-11,-14 -27,-23 -45,-26 -18,-2 -36,3 -51,14 -14,12 -23,28 -25,45 -3,18 3,36 14,51l108 138 -108 138c-23,29 -18,73 11,96 12,10 27,15 42,15 21,0 41,-10 54,-26l88 -112 88 112c13,16 32,26 54,26 15,0 30,-5 42,-15 29,-23 34,-66 11,-96l-108 -138 108 -138c23,-30 18,-73 -11,-96zm297 -16l-159 0c-38,0 -68,31 -68,68l0 362c0,38 31,68 68,68 38,0 69,-31 69,-68l0 -88 90 0c94,0 171,-77 171,-171 0,-94 -77,-171 -171,-171zm34 171c0,19 -15,34 -34,34l-90 0 0 -68 90 0c19,0 34,15 34,34zm312 259l0 -88 19 0 100 130c13,17 33,27 54,27 16,0 30,-5 42,-14 30,-23 35,-66 12,-96l-52 -69c52,-30 86,-86 86,-148 0,-94 -77,-171 -171,-171l-159 0c-38,0 -68,31 -68,68l0 362c0,38 31,68 68,68 38,0 69,-31 69,-68zm90 -293c19,0 34,15 34,34 0,19 -15,34 -34,34l-90 0 0 -68 90 0zm526 1c38,0 68,-31 68,-68 0,-38 -31,-68 -68,-68l-222 0c-49,0 -88,39 -88,88l0 340c0,38 31,68 68,68l242 0c38,0 68,-31 68,-68 0,-38 -31,-69 -68,-69l-173 0 0 -43 118 0c38,0 69,-31 69,-68 0,-38 -31,-68 -69,-68l-118 0 0 -44 173 0zm234 26c0,-27 44,-28 53,-28 51,0 70,43 123,43l1 -1c23,-5 41,-22 48,-45 8,-22 3,-46 -13,-64 -28,-32 -78,-70 -160,-70 -112,0 -190,68 -190,165 0,173 281,96 281,175 0,26 -49,22 -75,22 -105,0 -73,-62 -136,-62 -42,0 -63,46 -55,79 2,9 29,120 191,120 185,0 212,-119 212,-153 0,-205 -281,-90 -281,-181zm442 0c0,-27 44,-28 53,-28 51,0 70,43 123,43l1 -1c23,-5 41,-22 48,-45 8,-22 3,-46 -13,-64 -28,-32 -78,-70 -160,-70 -112,0 -190,68 -190,165 0,173 281,96 281,175 0,26 -49,22 -75,22 -105,0 -73,-62 -136,-62 -42,0 -63,46 -55,79 2,9 29,120 191,120 185,0 212,-119 212,-153 0,-205 -281,-90 -281,-181z"/>
   </g>
  </g>
 </g>
</svg>
