<svg xmlns:xlink="http://www.w3.org/1999/xlink" viewBox="617.4515939179632 3004.045512 10502.199434229138 2298.5040000000004" style="max-height: 500px" version="1.1" xml:space="preserve" xmlns="http://www.w3.org/2000/svg" width="10502.199434229138" height="2298.5040000000004">
 <defs>
  <style type="text/css">
   
    .str1 {stroke:white;stroke-width:4.11417}
    .str0 {stroke:white;stroke-width:228.504}
    .fil2 {fill:white}
    .fil0 {fill:#E32929;fill-rule:nonzero}
    .fil3 {fill:#FF611D;fill-rule:nonzero}
    .fil1 {fill:white;fill-rule:nonzero}
   
  </style>
 </defs>
 <g id="Layer_x0020_1">
  <metadata id="CorelCorpID_0Corel-Layer"/>
  <g id="_197107904">
   <path d="M2064 4207c0,-158 -67,-310 -182,-418 24,-56 35,-119 35,-182 0,-269 -217,-485 -485,-485l-442 0c-163,0 -295,130 -295,293l0 1136c0,126 102,228 228,228l572 0c314,0 570,-256 570,-570zm-912 -631l267 0c43,0 52,41 52,59 0,15 -15,56 -52,56l-267 0 0 -115zm342 743l-342 0 0 -225 342 0c63,0 113,50 113,113 0,63 -50,113 -113,113l0 0zm2018 -971c0,-126 -104,-228 -230,-228 -126,0 -228,102 -228,228l0 373 -392 0 0 -373c0,-126 -104,-228 -230,-228 -126,0 -228,102 -228,228l0 1201c0,126 102,228 228,228 126,0 230,-102 230,-228l0 -373 392 0 0 373c0,126 102,228 228,228 126,0 230,-102 230,-228l0 -1201zm1114 1287c37,89 121,141 210,141 30,0 61,-7 89,-17 115,-48 171,-182 124,-299l-501 -1205c-35,-85 -117,-141 -210,-141 -93,0 -178,56 -212,143l-483 1205c-48,117 9,251 126,297 28,11 56,17 85,17 95,0 178,-56 212,-143l48 -117 464 0 50 119zm-360 -577l76 -243 74 243 -150 0zm1968 -938c-111,0 -223,78 -230,225l0 559 -403 -674c-33,-54 -102,-111 -204,-111 -106,0 -221,87 -221,228l0 1201c0,126 102,228 228,228 126,0 230,-102 230,-228l0 -496 403 611c26,52 95,113 212,113 87,0 212,-72 212,-230l0 -1201c-7,-147 -119,-225 -228,-225zm837 542c0,-89 147,-93 176,-93 171,0 234,143 412,143l4 -2c78,-17 137,-74 160,-150 26,-74 9,-154 -43,-215 -93,-106 -260,-234 -533,-234 -373,0 -633,228 -633,550 0,579 936,322 936,583 0,87 -163,74 -249,74 -349,0 -243,-206 -453,-206 -141,0 -210,152 -184,265 6,30 98,399 637,399 618,0 707,-397 707,-509 0,-683 -936,-300 -936,-605zm2375 -314c0,-126 -104,-228 -230,-228 -126,0 -228,102 -228,228l0 373 -392 0 0 -373c0,-126 -104,-228 -230,-228 -126,0 -228,102 -228,228l0 1201c0,126 102,228 228,228 126,0 230,-102 230,-228l0 -373 392 0 0 373c0,126 102,228 228,228 126,0 230,-102 230,-228l0 -1201zm1114 1287c37,89 121,141 210,141 30,0 61,-7 89,-17 115,-48 171,-182 124,-299l-501 -1205c-35,-85 -117,-141 -210,-141 -93,0 -178,56 -212,143l-483 1205c-48,117 9,251 126,297 28,11 56,17 85,17 95,0 178,-56 212,-143l48 -117 464 0 50 119zm-360 -577l76 -243 74 243 -150 0z" class="fil0"/>
   <path d="M6858 4610c57,0 103,-46 103,-103 0,-57 -46,-103 -103,-103l-336 0c-74,0 -134,59 -134,133l0 515c0,57 46,103 103,103l367 0c57,0 103,-46 103,-103 0,-57 -46,-104 -103,-104l-263 0 0 -65 178 0c57,0 104,-46 104,-103 0,-57 -47,-103 -104,-103l-178 0 0 -66 263 0zm740 -185c-19,-15 -41,-23 -64,-23 -30,0 -61,14 -82,40l-133 168 -133 -168c-17,-22 -41,-35 -69,-39 -28,-3 -55,5 -77,22 -22,18 -35,42 -38,69 -4,28 4,55 22,77l163 208 -163 208c-35,44 -28,110 17,145 19,15 41,23 64,23 32,0 62,-15 82,-39l133 -169 133 169c20,25 49,39 82,39 23,0 45,-8 64,-23 44,-34 52,-100 17,-145l-163 -208 163 -208c35,-45 28,-110 -17,-146zm449 -25l-241 0c-57,0 -103,46 -103,103l0 548c0,57 46,103 103,103 57,0 104,-46 104,-103l0 -134 137 0c143,0 259,-116 259,-259 0,-143 -116,-259 -259,-259zm51 259c0,29 -23,52 -51,52l-137 0 0 -103 137 0c29,0 51,23 51,51zm472 392l0 -134 30 0 151 197c20,26 50,40 82,40 24,0 45,-8 64,-22 45,-35 53,-100 18,-146l-79 -104c79,-45 130,-131 130,-224 0,-143 -116,-259 -259,-259l-241 0c-57,0 -103,46 -103,103l0 548c0,57 46,103 103,103 57,0 104,-46 104,-103zm137 -444c29,0 51,23 51,51 0,29 -23,52 -51,52l-137 0 0 -103 137 0zm797 2c57,0 103,-46 103,-103 0,-57 -46,-103 -103,-103l-336 0c-74,0 -134,59 -134,133l0 515c0,57 46,103 103,103l367 0c57,0 103,-46 103,-103 0,-57 -46,-104 -103,-104l-263 0 0 -65 178 0c57,0 104,-46 104,-103 0,-57 -47,-103 -104,-103l-178 0 0 -66 263 0zm354 39c0,-40 67,-42 80,-42 78,0 106,65 187,65l2 -1c35,-8 62,-34 73,-68 12,-33 4,-70 -20,-97 -42,-48 -118,-106 -242,-106 -169,0 -287,103 -287,250 0,263 425,146 425,265 0,39 -74,33 -113,33 -158,0 -110,-94 -206,-94 -64,0 -95,69 -84,120 3,14 44,181 289,181 280,0 321,-180 321,-231 0,-310 -425,-136 -425,-274zm669 0c0,-40 67,-42 80,-42 78,0 106,65 187,65l2 -1c35,-8 62,-34 73,-68 12,-33 4,-70 -20,-97 -42,-48 -118,-106 -242,-106 -169,0 -287,103 -287,250 0,263 425,146 425,265 0,39 -74,33 -113,33 -158,0 -110,-94 -206,-94 -64,0 -95,69 -84,120 3,14 44,181 289,181 280,0 321,-180 321,-231 0,-310 -425,-136 -425,-274z" class="fil1 str0"/>
   <rect height="371" width="334" y="4612" x="6897" class="fil2 str1"/>
   <path d="M6858 4610c57,0 103,-46 103,-103 0,-57 -46,-103 -103,-103l-336 0c-74,0 -134,59 -134,133l0 515c0,57 46,103 103,103l367 0c57,0 103,-46 103,-103 0,-57 -46,-104 -103,-104l-263 0 0 -65 178 0c57,0 104,-46 104,-103 0,-57 -47,-103 -104,-103l-178 0 0 -66 263 0zm740 -185c-19,-15 -41,-23 -64,-23 -30,0 -61,14 -82,40l-133 168 -133 -168c-17,-22 -41,-35 -69,-39 -28,-3 -55,5 -77,22 -22,18 -35,42 -38,69 -4,28 4,55 22,77l163 208 -163 208c-35,44 -28,110 17,145 19,15 41,23 64,23 32,0 62,-15 82,-39l133 -169 133 169c20,25 49,39 82,39 23,0 45,-8 64,-23 44,-34 52,-100 17,-145l-163 -208 163 -208c35,-45 28,-110 -17,-146zm449 -25l-241 0c-57,0 -103,46 -103,103l0 548c0,57 46,103 103,103 57,0 104,-46 104,-103l0 -134 137 0c143,0 259,-116 259,-259 0,-143 -116,-259 -259,-259zm51 259c0,29 -23,52 -51,52l-137 0 0 -103 137 0c29,0 51,23 51,51zm472 392l0 -134 30 0 151 197c20,26 50,40 82,40 24,0 45,-8 64,-22 45,-35 53,-100 18,-146l-79 -104c79,-45 130,-131 130,-224 0,-143 -116,-259 -259,-259l-241 0c-57,0 -103,46 -103,103l0 548c0,57 46,103 103,103 57,0 104,-46 104,-103zm137 -444c29,0 51,23 51,51 0,29 -23,52 -51,52l-137 0 0 -103 137 0zm797 2c57,0 103,-46 103,-103 0,-57 -46,-103 -103,-103l-336 0c-74,0 -134,59 -134,133l0 515c0,57 46,103 103,103l367 0c57,0 103,-46 103,-103 0,-57 -46,-104 -103,-104l-263 0 0 -65 178 0c57,0 104,-46 104,-103 0,-57 -47,-103 -104,-103l-178 0 0 -66 263 0zm354 39c0,-40 67,-42 80,-42 78,0 106,65 187,65l2 -1c35,-8 62,-34 73,-68 12,-33 4,-70 -20,-97 -42,-48 -118,-106 -242,-106 -169,0 -287,103 -287,250 0,263 425,146 425,265 0,39 -74,33 -113,33 -158,0 -110,-94 -206,-94 -64,0 -95,69 -84,120 3,14 44,181 289,181 280,0 321,-180 321,-231 0,-310 -425,-136 -425,-274zm669 0c0,-40 67,-42 80,-42 78,0 106,65 187,65l2 -1c35,-8 62,-34 73,-68 12,-33 4,-70 -20,-97 -42,-48 -118,-106 -242,-106 -169,0 -287,103 -287,250 0,263 425,146 425,265 0,39 -74,33 -113,33 -158,0 -110,-94 -206,-94 -64,0 -95,69 -84,120 3,14 44,181 289,181 280,0 321,-180 321,-231 0,-310 -425,-136 -425,-274z" class="fil3"/>
  </g>
 </g>
</svg>